<?xml version="1.0" standalone="no"?>
<!DOCTYPE svg PUBLIC "-//W3C//DTD SVG 1.1//EN" "http://www.w3.org/Graphics/SVG/1.1/DTD/svg11.dtd">
<svg width="800" height="600" version="1.1" xmlns="http://www.w3.org/2000/svg">
<rect width="800" height="600" x="0" y="0" style="fill:rgb(238,238,238);stroke:none"/>
<rect width="800" height="600" x="0" y="0" style="fill:rgb(255,255,255);stroke:none"/>
<text x="2" y="566" fill="rgb(0,0,0)" font-family="Arial" font-size="12">0</text>
<text x="2" y="504" fill="rgb(0,0,0)" font-family="Arial" font-size="12">100000</text>
<text x="2" y="441" fill="rgb(0,0,0)" font-family="Arial" font-size="12">200000</text>
<text x="2" y="379" fill="rgb(0,0,0)" font-family="Arial" font-size="12">300000</text>
<text x="2" y="316" fill="rgb(0,0,0)" font-family="Arial" font-size="12">400000</text>
<text x="2" y="253" fill="rgb(0,0,0)" font-family="Arial" font-size="12">500000</text>
<text x="2" y="191" fill="rgb(0,0,0)" font-family="Arial" font-size="12">600000</text>
<text x="2" y="128" fill="rgb(0,0,0)" font-family="Arial" font-size="12">700000</text>
<text x="2" y="66" fill="rgb(0,0,0)" font-family="Arial" font-size="12">800000</text>
<text x="282" y="30" fill="rgb(0,0,0)" font-family="Arial" font-size="12">Quality score distribution over all sequences</text>
<line x1="53" y1="560" x2="790" y2="560" stroke="rgb(0,0,0)" stroke-width="1"/>
<line x1="53" y1="560" x2="53" y2="40" stroke="rgb(0,0,0)" stroke-width="1"/>
<text x="281" y="595" fill="rgb(0,0,0)" font-family="Arial" font-size="12">Mean Sequence Quality (Phred Score)</text>
<text x="60" y="575" fill="rgb(0,0,0)" font-family="Arial" font-size="12">2</text>
<rect width="23" height="520" x="76" y="40" style="fill:rgb(230,230,230);stroke:none"/>
<text x="83" y="575" fill="rgb(0,0,0)" font-family="Arial" font-size="12">3</text>
<text x="106" y="575" fill="rgb(0,0,0)" font-family="Arial" font-size="12">4</text>
<rect width="23" height="520" x="122" y="40" style="fill:rgb(230,230,230);stroke:none"/>
<text x="129" y="575" fill="rgb(0,0,0)" font-family="Arial" font-size="12">5</text>
<text x="152" y="575" fill="rgb(0,0,0)" font-family="Arial" font-size="12">6</text>
<rect width="23" height="520" x="168" y="40" style="fill:rgb(230,230,230);stroke:none"/>
<text x="175" y="575" fill="rgb(0,0,0)" font-family="Arial" font-size="12">7</text>
<text x="198" y="575" fill="rgb(0,0,0)" font-family="Arial" font-size="12">8</text>
<rect width="23" height="520" x="214" y="40" style="fill:rgb(230,230,230);stroke:none"/>
<text x="221" y="575" fill="rgb(0,0,0)" font-family="Arial" font-size="12">9</text>
<text x="240" y="575" fill="rgb(0,0,0)" font-family="Arial" font-size="12">10</text>
<rect width="23" height="520" x="260" y="40" style="fill:rgb(230,230,230);stroke:none"/>
<text x="263" y="575" fill="rgb(0,0,0)" font-family="Arial" font-size="12">11</text>
<text x="286" y="575" fill="rgb(0,0,0)" font-family="Arial" font-size="12">12</text>
<rect width="23" height="520" x="306" y="40" style="fill:rgb(230,230,230);stroke:none"/>
<text x="309" y="575" fill="rgb(0,0,0)" font-family="Arial" font-size="12">13</text>
<text x="332" y="575" fill="rgb(0,0,0)" font-family="Arial" font-size="12">14</text>
<rect width="23" height="520" x="352" y="40" style="fill:rgb(230,230,230);stroke:none"/>
<text x="355" y="575" fill="rgb(0,0,0)" font-family="Arial" font-size="12">15</text>
<text x="378" y="575" fill="rgb(0,0,0)" font-family="Arial" font-size="12">16</text>
<rect width="23" height="520" x="398" y="40" style="fill:rgb(230,230,230);stroke:none"/>
<text x="401" y="575" fill="rgb(0,0,0)" font-family="Arial" font-size="12">17</text>
<text x="424" y="575" fill="rgb(0,0,0)" font-family="Arial" font-size="12">18</text>
<rect width="23" height="520" x="444" y="40" style="fill:rgb(230,230,230);stroke:none"/>
<text x="447" y="575" fill="rgb(0,0,0)" font-family="Arial" font-size="12">19</text>
<text x="470" y="575" fill="rgb(0,0,0)" font-family="Arial" font-size="12">20</text>
<rect width="23" height="520" x="490" y="40" style="fill:rgb(230,230,230);stroke:none"/>
<text x="493" y="575" fill="rgb(0,0,0)" font-family="Arial" font-size="12">21</text>
<text x="516" y="575" fill="rgb(0,0,0)" font-family="Arial" font-size="12">22</text>
<rect width="23" height="520" x="536" y="40" style="fill:rgb(230,230,230);stroke:none"/>
<text x="539" y="575" fill="rgb(0,0,0)" font-family="Arial" font-size="12">23</text>
<text x="562" y="575" fill="rgb(0,0,0)" font-family="Arial" font-size="12">24</text>
<rect width="23" height="520" x="582" y="40" style="fill:rgb(230,230,230);stroke:none"/>
<text x="585" y="575" fill="rgb(0,0,0)" font-family="Arial" font-size="12">25</text>
<text x="608" y="575" fill="rgb(0,0,0)" font-family="Arial" font-size="12">26</text>
<rect width="23" height="520" x="628" y="40" style="fill:rgb(230,230,230);stroke:none"/>
<text x="631" y="575" fill="rgb(0,0,0)" font-family="Arial" font-size="12">27</text>
<text x="654" y="575" fill="rgb(0,0,0)" font-family="Arial" font-size="12">28</text>
<rect width="23" height="520" x="674" y="40" style="fill:rgb(230,230,230);stroke:none"/>
<text x="677" y="575" fill="rgb(0,0,0)" font-family="Arial" font-size="12">29</text>
<text x="700" y="575" fill="rgb(0,0,0)" font-family="Arial" font-size="12">30</text>
<rect width="23" height="520" x="720" y="40" style="fill:rgb(230,230,230);stroke:none"/>
<text x="723" y="575" fill="rgb(0,0,0)" font-family="Arial" font-size="12">31</text>
<text x="746" y="575" fill="rgb(0,0,0)" font-family="Arial" font-size="12">32</text>
<rect width="23" height="520" x="766" y="40" style="fill:rgb(230,230,230);stroke:none"/>
<text x="769" y="575" fill="rgb(0,0,0)" font-family="Arial" font-size="12">33</text>
<line x1="53" y1="560" x2="790" y2="560" stroke="rgb(180,180,180)" stroke-width="1"/>
<line x1="53" y1="498" x2="790" y2="498" stroke="rgb(180,180,180)" stroke-width="1"/>
<line x1="53" y1="435" x2="790" y2="435" stroke="rgb(180,180,180)" stroke-width="1"/>
<line x1="53" y1="373" x2="790" y2="373" stroke="rgb(180,180,180)" stroke-width="1"/>
<line x1="53" y1="310" x2="790" y2="310" stroke="rgb(180,180,180)" stroke-width="1"/>
<line x1="53" y1="247" x2="790" y2="247" stroke="rgb(180,180,180)" stroke-width="1"/>
<line x1="53" y1="185" x2="790" y2="185" stroke="rgb(180,180,180)" stroke-width="1"/>
<line x1="53" y1="122" x2="790" y2="122" stroke="rgb(180,180,180)" stroke-width="1"/>
<line x1="53" y1="60" x2="790" y2="60" stroke="rgb(180,180,180)" stroke-width="1"/>
<line x1="64" y1="560" x2="87" y2="560" stroke="rgb(136,34,85)" stroke-width="1"/>
<line x1="87" y1="560" x2="110" y2="560" stroke="rgb(136,34,85)" stroke-width="1"/>
<line x1="110" y1="560" x2="133" y2="557" stroke="rgb(136,34,85)" stroke-width="1"/>
<line x1="133" y1="557" x2="156" y2="523" stroke="rgb(136,34,85)" stroke-width="1"/>
<line x1="156" y1="523" x2="179" y2="556" stroke="rgb(136,34,85)" stroke-width="1"/>
<line x1="179" y1="556" x2="202" y2="555" stroke="rgb(136,34,85)" stroke-width="1"/>
<line x1="202" y1="555" x2="225" y2="556" stroke="rgb(136,34,85)" stroke-width="1"/>
<line x1="225" y1="556" x2="248" y2="555" stroke="rgb(136,34,85)" stroke-width="1"/>
<line x1="248" y1="555" x2="271" y2="555" stroke="rgb(136,34,85)" stroke-width="1"/>
<line x1="271" y1="555" x2="294" y2="554" stroke="rgb(136,34,85)" stroke-width="1"/>
<line x1="294" y1="554" x2="317" y2="554" stroke="rgb(136,34,85)" stroke-width="1"/>
<line x1="317" y1="554" x2="340" y2="552" stroke="rgb(136,34,85)" stroke-width="1"/>
<line x1="340" y1="552" x2="363" y2="551" stroke="rgb(136,34,85)" stroke-width="1"/>
<line x1="363" y1="551" x2="386" y2="551" stroke="rgb(136,34,85)" stroke-width="1"/>
<line x1="386" y1="551" x2="409" y2="550" stroke="rgb(136,34,85)" stroke-width="1"/>
<line x1="409" y1="550" x2="432" y2="549" stroke="rgb(136,34,85)" stroke-width="1"/>
<line x1="432" y1="549" x2="455" y2="547" stroke="rgb(136,34,85)" stroke-width="1"/>
<line x1="455" y1="547" x2="478" y2="546" stroke="rgb(136,34,85)" stroke-width="1"/>
<line x1="478" y1="546" x2="501" y2="544" stroke="rgb(136,34,85)" stroke-width="1"/>
<line x1="501" y1="544" x2="524" y2="543" stroke="rgb(136,34,85)" stroke-width="1"/>
<line x1="524" y1="543" x2="547" y2="541" stroke="rgb(136,34,85)" stroke-width="1"/>
<line x1="547" y1="541" x2="570" y2="538" stroke="rgb(136,34,85)" stroke-width="1"/>
<line x1="570" y1="538" x2="593" y2="535" stroke="rgb(136,34,85)" stroke-width="1"/>
<line x1="593" y1="535" x2="616" y2="531" stroke="rgb(136,34,85)" stroke-width="1"/>
<line x1="616" y1="531" x2="639" y2="526" stroke="rgb(136,34,85)" stroke-width="1"/>
<line x1="639" y1="526" x2="662" y2="518" stroke="rgb(136,34,85)" stroke-width="1"/>
<line x1="662" y1="518" x2="685" y2="507" stroke="rgb(136,34,85)" stroke-width="1"/>
<line x1="685" y1="507" x2="708" y2="480" stroke="rgb(136,34,85)" stroke-width="1"/>
<line x1="708" y1="480" x2="731" y2="387" stroke="rgb(136,34,85)" stroke-width="1"/>
<line x1="731" y1="387" x2="754" y2="40" stroke="rgb(136,34,85)" stroke-width="1"/>
<line x1="754" y1="40" x2="777" y2="466" stroke="rgb(136,34,85)" stroke-width="1"/>
<rect width="183" height="23" x="607" y="40" style="fill:rgb(255,255,255);stroke:none"/>
<rect width="183" height="23" x="607" y="40" rx="0" ry="0" style="fill:none;stroke-width:1;stroke:rgb(192,192,192)"/>
<text x="610" y="55" fill="rgb(136,34,85)" font-family="Arial" font-size="12" font-weight="bold">Average Quality per read</text>
</svg>
