<?xml version="1.0" standalone="no"?>
<!DOCTYPE svg PUBLIC "-//W3C//DTD SVG 1.1//EN" "http://www.w3.org/Graphics/SVG/1.1/DTD/svg11.dtd">
<svg width="800" height="600" version="1.1" xmlns="http://www.w3.org/2000/svg">
<rect width="800" height="600" x="0" y="0" style="fill:rgb(238,238,238);stroke:none"/>
<rect width="800" height="600" x="0" y="0" style="fill:rgb(255,255,255);stroke:none"/>
<text x="2" y="566" fill="rgb(0,0,0)" font-family="Arial" font-size="12">0</text>
<text x="2" y="491" fill="rgb(0,0,0)" font-family="Arial" font-size="12">5000</text>
<text x="2" y="416" fill="rgb(0,0,0)" font-family="Arial" font-size="12">10000</text>
<text x="2" y="341" fill="rgb(0,0,0)" font-family="Arial" font-size="12">15000</text>
<text x="2" y="265" fill="rgb(0,0,0)" font-family="Arial" font-size="12">20000</text>
<text x="2" y="190" fill="rgb(0,0,0)" font-family="Arial" font-size="12">25000</text>
<text x="2" y="115" fill="rgb(0,0,0)" font-family="Arial" font-size="12">30000</text>
<text x="310" y="30" fill="rgb(0,0,0)" font-family="Arial" font-size="12">GC distribution over all sequences</text>
<line x1="45" y1="560" x2="790" y2="560" stroke="rgb(0,0,0)" stroke-width="1"/>
<line x1="45" y1="560" x2="45" y2="40" stroke="rgb(0,0,0)" stroke-width="1"/>
<text x="334" y="595" fill="rgb(0,0,0)" font-family="Arial" font-size="12">Mean GC content (%)</text>
<text x="44" y="575" fill="rgb(0,0,0)" font-family="Arial" font-size="12">0</text>
<rect width="7" height="520" x="52" y="40" style="fill:rgb(230,230,230);stroke:none"/>
<text x="58" y="575" fill="rgb(0,0,0)" font-family="Arial" font-size="12">2</text>
<rect width="7" height="520" x="66" y="40" style="fill:rgb(230,230,230);stroke:none"/>
<text x="72" y="575" fill="rgb(0,0,0)" font-family="Arial" font-size="12">4</text>
<rect width="7" height="520" x="80" y="40" style="fill:rgb(230,230,230);stroke:none"/>
<text x="86" y="575" fill="rgb(0,0,0)" font-family="Arial" font-size="12">6</text>
<rect width="7" height="520" x="94" y="40" style="fill:rgb(230,230,230);stroke:none"/>
<text x="100" y="575" fill="rgb(0,0,0)" font-family="Arial" font-size="12">8</text>
<rect width="7" height="520" x="108" y="40" style="fill:rgb(230,230,230);stroke:none"/>
<rect width="7" height="520" x="122" y="40" style="fill:rgb(230,230,230);stroke:none"/>
<text x="117" y="575" fill="rgb(0,0,0)" font-family="Arial" font-size="12">11</text>
<rect width="7" height="520" x="136" y="40" style="fill:rgb(230,230,230);stroke:none"/>
<rect width="7" height="520" x="150" y="40" style="fill:rgb(230,230,230);stroke:none"/>
<text x="145" y="575" fill="rgb(0,0,0)" font-family="Arial" font-size="12">15</text>
<rect width="7" height="520" x="164" y="40" style="fill:rgb(230,230,230);stroke:none"/>
<rect width="7" height="520" x="178" y="40" style="fill:rgb(230,230,230);stroke:none"/>
<text x="173" y="575" fill="rgb(0,0,0)" font-family="Arial" font-size="12">19</text>
<rect width="7" height="520" x="192" y="40" style="fill:rgb(230,230,230);stroke:none"/>
<rect width="7" height="520" x="206" y="40" style="fill:rgb(230,230,230);stroke:none"/>
<text x="201" y="575" fill="rgb(0,0,0)" font-family="Arial" font-size="12">23</text>
<rect width="7" height="520" x="220" y="40" style="fill:rgb(230,230,230);stroke:none"/>
<rect width="7" height="520" x="234" y="40" style="fill:rgb(230,230,230);stroke:none"/>
<text x="229" y="575" fill="rgb(0,0,0)" font-family="Arial" font-size="12">27</text>
<rect width="7" height="520" x="248" y="40" style="fill:rgb(230,230,230);stroke:none"/>
<rect width="7" height="520" x="262" y="40" style="fill:rgb(230,230,230);stroke:none"/>
<text x="257" y="575" fill="rgb(0,0,0)" font-family="Arial" font-size="12">31</text>
<rect width="7" height="520" x="276" y="40" style="fill:rgb(230,230,230);stroke:none"/>
<rect width="7" height="520" x="290" y="40" style="fill:rgb(230,230,230);stroke:none"/>
<text x="285" y="575" fill="rgb(0,0,0)" font-family="Arial" font-size="12">35</text>
<rect width="7" height="520" x="304" y="40" style="fill:rgb(230,230,230);stroke:none"/>
<rect width="7" height="520" x="318" y="40" style="fill:rgb(230,230,230);stroke:none"/>
<text x="313" y="575" fill="rgb(0,0,0)" font-family="Arial" font-size="12">39</text>
<rect width="7" height="520" x="332" y="40" style="fill:rgb(230,230,230);stroke:none"/>
<rect width="7" height="520" x="346" y="40" style="fill:rgb(230,230,230);stroke:none"/>
<text x="341" y="575" fill="rgb(0,0,0)" font-family="Arial" font-size="12">43</text>
<rect width="7" height="520" x="360" y="40" style="fill:rgb(230,230,230);stroke:none"/>
<rect width="7" height="520" x="374" y="40" style="fill:rgb(230,230,230);stroke:none"/>
<text x="369" y="575" fill="rgb(0,0,0)" font-family="Arial" font-size="12">47</text>
<rect width="7" height="520" x="388" y="40" style="fill:rgb(230,230,230);stroke:none"/>
<rect width="7" height="520" x="402" y="40" style="fill:rgb(230,230,230);stroke:none"/>
<text x="397" y="575" fill="rgb(0,0,0)" font-family="Arial" font-size="12">51</text>
<rect width="7" height="520" x="416" y="40" style="fill:rgb(230,230,230);stroke:none"/>
<rect width="7" height="520" x="430" y="40" style="fill:rgb(230,230,230);stroke:none"/>
<text x="425" y="575" fill="rgb(0,0,0)" font-family="Arial" font-size="12">55</text>
<rect width="7" height="520" x="444" y="40" style="fill:rgb(230,230,230);stroke:none"/>
<rect width="7" height="520" x="458" y="40" style="fill:rgb(230,230,230);stroke:none"/>
<text x="453" y="575" fill="rgb(0,0,0)" font-family="Arial" font-size="12">59</text>
<rect width="7" height="520" x="472" y="40" style="fill:rgb(230,230,230);stroke:none"/>
<rect width="7" height="520" x="486" y="40" style="fill:rgb(230,230,230);stroke:none"/>
<text x="481" y="575" fill="rgb(0,0,0)" font-family="Arial" font-size="12">63</text>
<rect width="7" height="520" x="500" y="40" style="fill:rgb(230,230,230);stroke:none"/>
<rect width="7" height="520" x="514" y="40" style="fill:rgb(230,230,230);stroke:none"/>
<text x="509" y="575" fill="rgb(0,0,0)" font-family="Arial" font-size="12">67</text>
<rect width="7" height="520" x="528" y="40" style="fill:rgb(230,230,230);stroke:none"/>
<rect width="7" height="520" x="542" y="40" style="fill:rgb(230,230,230);stroke:none"/>
<text x="537" y="575" fill="rgb(0,0,0)" font-family="Arial" font-size="12">71</text>
<rect width="7" height="520" x="556" y="40" style="fill:rgb(230,230,230);stroke:none"/>
<rect width="7" height="520" x="570" y="40" style="fill:rgb(230,230,230);stroke:none"/>
<text x="565" y="575" fill="rgb(0,0,0)" font-family="Arial" font-size="12">75</text>
<rect width="7" height="520" x="584" y="40" style="fill:rgb(230,230,230);stroke:none"/>
<rect width="7" height="520" x="598" y="40" style="fill:rgb(230,230,230);stroke:none"/>
<text x="593" y="575" fill="rgb(0,0,0)" font-family="Arial" font-size="12">79</text>
<rect width="7" height="520" x="612" y="40" style="fill:rgb(230,230,230);stroke:none"/>
<rect width="7" height="520" x="626" y="40" style="fill:rgb(230,230,230);stroke:none"/>
<text x="621" y="575" fill="rgb(0,0,0)" font-family="Arial" font-size="12">83</text>
<rect width="7" height="520" x="640" y="40" style="fill:rgb(230,230,230);stroke:none"/>
<rect width="7" height="520" x="654" y="40" style="fill:rgb(230,230,230);stroke:none"/>
<text x="649" y="575" fill="rgb(0,0,0)" font-family="Arial" font-size="12">87</text>
<rect width="7" height="520" x="668" y="40" style="fill:rgb(230,230,230);stroke:none"/>
<rect width="7" height="520" x="682" y="40" style="fill:rgb(230,230,230);stroke:none"/>
<text x="677" y="575" fill="rgb(0,0,0)" font-family="Arial" font-size="12">91</text>
<rect width="7" height="520" x="696" y="40" style="fill:rgb(230,230,230);stroke:none"/>
<rect width="7" height="520" x="710" y="40" style="fill:rgb(230,230,230);stroke:none"/>
<text x="705" y="575" fill="rgb(0,0,0)" font-family="Arial" font-size="12">95</text>
<rect width="7" height="520" x="724" y="40" style="fill:rgb(230,230,230);stroke:none"/>
<rect width="7" height="520" x="738" y="40" style="fill:rgb(230,230,230);stroke:none"/>
<text x="733" y="575" fill="rgb(0,0,0)" font-family="Arial" font-size="12">99</text>
<line x1="45" y1="560" x2="790" y2="560" stroke="rgb(180,180,180)" stroke-width="1"/>
<line x1="45" y1="485" x2="790" y2="485" stroke="rgb(180,180,180)" stroke-width="1"/>
<line x1="45" y1="410" x2="790" y2="410" stroke="rgb(180,180,180)" stroke-width="1"/>
<line x1="45" y1="335" x2="790" y2="335" stroke="rgb(180,180,180)" stroke-width="1"/>
<line x1="45" y1="259" x2="790" y2="259" stroke="rgb(180,180,180)" stroke-width="1"/>
<line x1="45" y1="184" x2="790" y2="184" stroke="rgb(180,180,180)" stroke-width="1"/>
<line x1="45" y1="109" x2="790" y2="109" stroke="rgb(180,180,180)" stroke-width="1"/>
<line x1="48" y1="560" x2="55" y2="560" stroke="rgb(136,34,85)" stroke-width="1"/>
<line x1="55" y1="560" x2="62" y2="560" stroke="rgb(136,34,85)" stroke-width="1"/>
<line x1="62" y1="560" x2="69" y2="560" stroke="rgb(136,34,85)" stroke-width="1"/>
<line x1="69" y1="560" x2="76" y2="560" stroke="rgb(136,34,85)" stroke-width="1"/>
<line x1="76" y1="560" x2="83" y2="560" stroke="rgb(136,34,85)" stroke-width="1"/>
<line x1="83" y1="560" x2="90" y2="560" stroke="rgb(136,34,85)" stroke-width="1"/>
<line x1="90" y1="560" x2="97" y2="560" stroke="rgb(136,34,85)" stroke-width="1"/>
<line x1="97" y1="560" x2="104" y2="560" stroke="rgb(136,34,85)" stroke-width="1"/>
<line x1="104" y1="560" x2="111" y2="560" stroke="rgb(136,34,85)" stroke-width="1"/>
<line x1="111" y1="560" x2="118" y2="560" stroke="rgb(136,34,85)" stroke-width="1"/>
<line x1="118" y1="560" x2="125" y2="560" stroke="rgb(136,34,85)" stroke-width="1"/>
<line x1="125" y1="560" x2="132" y2="560" stroke="rgb(136,34,85)" stroke-width="1"/>
<line x1="132" y1="560" x2="139" y2="559" stroke="rgb(136,34,85)" stroke-width="1"/>
<line x1="139" y1="559" x2="146" y2="558" stroke="rgb(136,34,85)" stroke-width="1"/>
<line x1="146" y1="558" x2="153" y2="557" stroke="rgb(136,34,85)" stroke-width="1"/>
<line x1="153" y1="557" x2="160" y2="554" stroke="rgb(136,34,85)" stroke-width="1"/>
<line x1="160" y1="554" x2="167" y2="550" stroke="rgb(136,34,85)" stroke-width="1"/>
<line x1="167" y1="550" x2="174" y2="542" stroke="rgb(136,34,85)" stroke-width="1"/>
<line x1="174" y1="542" x2="181" y2="532" stroke="rgb(136,34,85)" stroke-width="1"/>
<line x1="181" y1="532" x2="188" y2="526" stroke="rgb(136,34,85)" stroke-width="1"/>
<line x1="188" y1="526" x2="195" y2="518" stroke="rgb(136,34,85)" stroke-width="1"/>
<line x1="195" y1="518" x2="202" y2="500" stroke="rgb(136,34,85)" stroke-width="1"/>
<line x1="202" y1="500" x2="209" y2="478" stroke="rgb(136,34,85)" stroke-width="1"/>
<line x1="209" y1="478" x2="216" y2="451" stroke="rgb(136,34,85)" stroke-width="1"/>
<line x1="216" y1="451" x2="223" y2="415" stroke="rgb(136,34,85)" stroke-width="1"/>
<line x1="223" y1="415" x2="230" y2="378" stroke="rgb(136,34,85)" stroke-width="1"/>
<line x1="230" y1="378" x2="237" y2="341" stroke="rgb(136,34,85)" stroke-width="1"/>
<line x1="237" y1="341" x2="244" y2="303" stroke="rgb(136,34,85)" stroke-width="1"/>
<line x1="244" y1="303" x2="251" y2="262" stroke="rgb(136,34,85)" stroke-width="1"/>
<line x1="251" y1="262" x2="258" y2="241" stroke="rgb(136,34,85)" stroke-width="1"/>
<line x1="258" y1="241" x2="265" y2="220" stroke="rgb(136,34,85)" stroke-width="1"/>
<line x1="265" y1="220" x2="272" y2="184" stroke="rgb(136,34,85)" stroke-width="1"/>
<line x1="272" y1="184" x2="279" y2="158" stroke="rgb(136,34,85)" stroke-width="1"/>
<line x1="279" y1="158" x2="286" y2="129" stroke="rgb(136,34,85)" stroke-width="1"/>
<line x1="286" y1="129" x2="293" y2="106" stroke="rgb(136,34,85)" stroke-width="1"/>
<line x1="293" y1="106" x2="300" y2="90" stroke="rgb(136,34,85)" stroke-width="1"/>
<line x1="300" y1="90" x2="307" y2="75" stroke="rgb(136,34,85)" stroke-width="1"/>
<line x1="307" y1="75" x2="314" y2="67" stroke="rgb(136,34,85)" stroke-width="1"/>
<line x1="314" y1="67" x2="321" y2="62" stroke="rgb(136,34,85)" stroke-width="1"/>
<line x1="321" y1="62" x2="328" y2="60" stroke="rgb(136,34,85)" stroke-width="1"/>
<line x1="328" y1="60" x2="335" y2="55" stroke="rgb(136,34,85)" stroke-width="1"/>
<line x1="335" y1="55" x2="342" y2="56" stroke="rgb(136,34,85)" stroke-width="1"/>
<line x1="342" y1="56" x2="349" y2="61" stroke="rgb(136,34,85)" stroke-width="1"/>
<line x1="349" y1="61" x2="356" y2="67" stroke="rgb(136,34,85)" stroke-width="1"/>
<line x1="356" y1="67" x2="363" y2="73" stroke="rgb(136,34,85)" stroke-width="1"/>
<line x1="363" y1="73" x2="370" y2="80" stroke="rgb(136,34,85)" stroke-width="1"/>
<line x1="370" y1="80" x2="377" y2="94" stroke="rgb(136,34,85)" stroke-width="1"/>
<line x1="377" y1="94" x2="384" y2="110" stroke="rgb(136,34,85)" stroke-width="1"/>
<line x1="384" y1="110" x2="391" y2="131" stroke="rgb(136,34,85)" stroke-width="1"/>
<line x1="391" y1="131" x2="398" y2="141" stroke="rgb(136,34,85)" stroke-width="1"/>
<line x1="398" y1="141" x2="405" y2="149" stroke="rgb(136,34,85)" stroke-width="1"/>
<line x1="405" y1="149" x2="412" y2="167" stroke="rgb(136,34,85)" stroke-width="1"/>
<line x1="412" y1="167" x2="419" y2="182" stroke="rgb(136,34,85)" stroke-width="1"/>
<line x1="419" y1="182" x2="426" y2="194" stroke="rgb(136,34,85)" stroke-width="1"/>
<line x1="426" y1="194" x2="433" y2="207" stroke="rgb(136,34,85)" stroke-width="1"/>
<line x1="433" y1="207" x2="440" y2="213" stroke="rgb(136,34,85)" stroke-width="1"/>
<line x1="440" y1="213" x2="447" y2="224" stroke="rgb(136,34,85)" stroke-width="1"/>
<line x1="447" y1="224" x2="454" y2="245" stroke="rgb(136,34,85)" stroke-width="1"/>
<line x1="454" y1="245" x2="461" y2="264" stroke="rgb(136,34,85)" stroke-width="1"/>
<line x1="461" y1="264" x2="468" y2="271" stroke="rgb(136,34,85)" stroke-width="1"/>
<line x1="468" y1="271" x2="475" y2="283" stroke="rgb(136,34,85)" stroke-width="1"/>
<line x1="475" y1="283" x2="482" y2="308" stroke="rgb(136,34,85)" stroke-width="1"/>
<line x1="482" y1="308" x2="489" y2="335" stroke="rgb(136,34,85)" stroke-width="1"/>
<line x1="489" y1="335" x2="496" y2="360" stroke="rgb(136,34,85)" stroke-width="1"/>
<line x1="496" y1="360" x2="503" y2="385" stroke="rgb(136,34,85)" stroke-width="1"/>
<line x1="503" y1="385" x2="510" y2="410" stroke="rgb(136,34,85)" stroke-width="1"/>
<line x1="510" y1="410" x2="517" y2="434" stroke="rgb(136,34,85)" stroke-width="1"/>
<line x1="517" y1="434" x2="524" y2="457" stroke="rgb(136,34,85)" stroke-width="1"/>
<line x1="524" y1="457" x2="531" y2="478" stroke="rgb(136,34,85)" stroke-width="1"/>
<line x1="531" y1="478" x2="538" y2="488" stroke="rgb(136,34,85)" stroke-width="1"/>
<line x1="538" y1="488" x2="545" y2="495" stroke="rgb(136,34,85)" stroke-width="1"/>
<line x1="545" y1="495" x2="552" y2="510" stroke="rgb(136,34,85)" stroke-width="1"/>
<line x1="552" y1="510" x2="559" y2="523" stroke="rgb(136,34,85)" stroke-width="1"/>
<line x1="559" y1="523" x2="566" y2="532" stroke="rgb(136,34,85)" stroke-width="1"/>
<line x1="566" y1="532" x2="573" y2="540" stroke="rgb(136,34,85)" stroke-width="1"/>
<line x1="573" y1="540" x2="580" y2="545" stroke="rgb(136,34,85)" stroke-width="1"/>
<line x1="580" y1="545" x2="587" y2="549" stroke="rgb(136,34,85)" stroke-width="1"/>
<line x1="587" y1="549" x2="594" y2="552" stroke="rgb(136,34,85)" stroke-width="1"/>
<line x1="594" y1="552" x2="601" y2="554" stroke="rgb(136,34,85)" stroke-width="1"/>
<line x1="601" y1="554" x2="608" y2="556" stroke="rgb(136,34,85)" stroke-width="1"/>
<line x1="608" y1="556" x2="615" y2="557" stroke="rgb(136,34,85)" stroke-width="1"/>
<line x1="615" y1="557" x2="622" y2="558" stroke="rgb(136,34,85)" stroke-width="1"/>
<line x1="622" y1="558" x2="629" y2="559" stroke="rgb(136,34,85)" stroke-width="1"/>
<line x1="629" y1="559" x2="636" y2="559" stroke="rgb(136,34,85)" stroke-width="1"/>
<line x1="636" y1="559" x2="643" y2="560" stroke="rgb(136,34,85)" stroke-width="1"/>
<line x1="643" y1="560" x2="650" y2="560" stroke="rgb(136,34,85)" stroke-width="1"/>
<line x1="650" y1="560" x2="657" y2="560" stroke="rgb(136,34,85)" stroke-width="1"/>
<line x1="657" y1="560" x2="664" y2="560" stroke="rgb(136,34,85)" stroke-width="1"/>
<line x1="664" y1="560" x2="671" y2="560" stroke="rgb(136,34,85)" stroke-width="1"/>
<line x1="671" y1="560" x2="678" y2="560" stroke="rgb(136,34,85)" stroke-width="1"/>
<line x1="678" y1="560" x2="685" y2="560" stroke="rgb(136,34,85)" stroke-width="1"/>
<line x1="685" y1="560" x2="692" y2="560" stroke="rgb(136,34,85)" stroke-width="1"/>
<line x1="692" y1="560" x2="699" y2="560" stroke="rgb(136,34,85)" stroke-width="1"/>
<line x1="699" y1="560" x2="706" y2="560" stroke="rgb(136,34,85)" stroke-width="1"/>
<line x1="706" y1="560" x2="713" y2="560" stroke="rgb(136,34,85)" stroke-width="1"/>
<line x1="713" y1="560" x2="720" y2="560" stroke="rgb(136,34,85)" stroke-width="1"/>
<line x1="720" y1="560" x2="727" y2="560" stroke="rgb(136,34,85)" stroke-width="1"/>
<line x1="727" y1="560" x2="734" y2="560" stroke="rgb(136,34,85)" stroke-width="1"/>
<line x1="734" y1="560" x2="741" y2="560" stroke="rgb(136,34,85)" stroke-width="1"/>
<line x1="741" y1="560" x2="748" y2="560" stroke="rgb(136,34,85)" stroke-width="1"/>
<line x1="48" y1="558" x2="55" y2="557" stroke="rgb(51,34,136)" stroke-width="1"/>
<line x1="55" y1="557" x2="62" y2="556" stroke="rgb(51,34,136)" stroke-width="1"/>
<line x1="62" y1="556" x2="69" y2="555" stroke="rgb(51,34,136)" stroke-width="1"/>
<line x1="69" y1="555" x2="76" y2="553" stroke="rgb(51,34,136)" stroke-width="1"/>
<line x1="76" y1="553" x2="83" y2="552" stroke="rgb(51,34,136)" stroke-width="1"/>
<line x1="83" y1="552" x2="90" y2="549" stroke="rgb(51,34,136)" stroke-width="1"/>
<line x1="90" y1="549" x2="97" y2="547" stroke="rgb(51,34,136)" stroke-width="1"/>
<line x1="97" y1="547" x2="104" y2="544" stroke="rgb(51,34,136)" stroke-width="1"/>
<line x1="104" y1="544" x2="111" y2="540" stroke="rgb(51,34,136)" stroke-width="1"/>
<line x1="111" y1="540" x2="118" y2="535" stroke="rgb(51,34,136)" stroke-width="1"/>
<line x1="118" y1="535" x2="125" y2="530" stroke="rgb(51,34,136)" stroke-width="1"/>
<line x1="125" y1="530" x2="132" y2="524" stroke="rgb(51,34,136)" stroke-width="1"/>
<line x1="132" y1="524" x2="139" y2="516" stroke="rgb(51,34,136)" stroke-width="1"/>
<line x1="139" y1="516" x2="146" y2="508" stroke="rgb(51,34,136)" stroke-width="1"/>
<line x1="146" y1="508" x2="153" y2="498" stroke="rgb(51,34,136)" stroke-width="1"/>
<line x1="153" y1="498" x2="160" y2="488" stroke="rgb(51,34,136)" stroke-width="1"/>
<line x1="160" y1="488" x2="167" y2="476" stroke="rgb(51,34,136)" stroke-width="1"/>
<line x1="167" y1="476" x2="174" y2="462" stroke="rgb(51,34,136)" stroke-width="1"/>
<line x1="174" y1="462" x2="181" y2="447" stroke="rgb(51,34,136)" stroke-width="1"/>
<line x1="181" y1="447" x2="188" y2="431" stroke="rgb(51,34,136)" stroke-width="1"/>
<line x1="188" y1="431" x2="195" y2="413" stroke="rgb(51,34,136)" stroke-width="1"/>
<line x1="195" y1="413" x2="202" y2="393" stroke="rgb(51,34,136)" stroke-width="1"/>
<line x1="202" y1="393" x2="209" y2="373" stroke="rgb(51,34,136)" stroke-width="1"/>
<line x1="209" y1="373" x2="216" y2="351" stroke="rgb(51,34,136)" stroke-width="1"/>
<line x1="216" y1="351" x2="223" y2="328" stroke="rgb(51,34,136)" stroke-width="1"/>
<line x1="223" y1="328" x2="230" y2="304" stroke="rgb(51,34,136)" stroke-width="1"/>
<line x1="230" y1="304" x2="237" y2="280" stroke="rgb(51,34,136)" stroke-width="1"/>
<line x1="237" y1="280" x2="244" y2="255" stroke="rgb(51,34,136)" stroke-width="1"/>
<line x1="244" y1="255" x2="251" y2="230" stroke="rgb(51,34,136)" stroke-width="1"/>
<line x1="251" y1="230" x2="258" y2="205" stroke="rgb(51,34,136)" stroke-width="1"/>
<line x1="258" y1="205" x2="265" y2="181" stroke="rgb(51,34,136)" stroke-width="1"/>
<line x1="265" y1="181" x2="272" y2="157" stroke="rgb(51,34,136)" stroke-width="1"/>
<line x1="272" y1="157" x2="279" y2="135" stroke="rgb(51,34,136)" stroke-width="1"/>
<line x1="279" y1="135" x2="286" y2="115" stroke="rgb(51,34,136)" stroke-width="1"/>
<line x1="286" y1="115" x2="293" y2="96" stroke="rgb(51,34,136)" stroke-width="1"/>
<line x1="293" y1="96" x2="300" y2="80" stroke="rgb(51,34,136)" stroke-width="1"/>
<line x1="300" y1="80" x2="307" y2="66" stroke="rgb(51,34,136)" stroke-width="1"/>
<line x1="307" y1="66" x2="314" y2="55" stroke="rgb(51,34,136)" stroke-width="1"/>
<line x1="314" y1="55" x2="321" y2="47" stroke="rgb(51,34,136)" stroke-width="1"/>
<line x1="321" y1="47" x2="328" y2="42" stroke="rgb(51,34,136)" stroke-width="1"/>
<line x1="328" y1="42" x2="335" y2="40" stroke="rgb(51,34,136)" stroke-width="1"/>
<line x1="335" y1="40" x2="342" y2="42" stroke="rgb(51,34,136)" stroke-width="1"/>
<line x1="342" y1="42" x2="349" y2="47" stroke="rgb(51,34,136)" stroke-width="1"/>
<line x1="349" y1="47" x2="356" y2="55" stroke="rgb(51,34,136)" stroke-width="1"/>
<line x1="356" y1="55" x2="363" y2="66" stroke="rgb(51,34,136)" stroke-width="1"/>
<line x1="363" y1="66" x2="370" y2="80" stroke="rgb(51,34,136)" stroke-width="1"/>
<line x1="370" y1="80" x2="377" y2="96" stroke="rgb(51,34,136)" stroke-width="1"/>
<line x1="377" y1="96" x2="384" y2="115" stroke="rgb(51,34,136)" stroke-width="1"/>
<line x1="384" y1="115" x2="391" y2="135" stroke="rgb(51,34,136)" stroke-width="1"/>
<line x1="391" y1="135" x2="398" y2="157" stroke="rgb(51,34,136)" stroke-width="1"/>
<line x1="398" y1="157" x2="405" y2="181" stroke="rgb(51,34,136)" stroke-width="1"/>
<line x1="405" y1="181" x2="412" y2="205" stroke="rgb(51,34,136)" stroke-width="1"/>
<line x1="412" y1="205" x2="419" y2="230" stroke="rgb(51,34,136)" stroke-width="1"/>
<line x1="419" y1="230" x2="426" y2="255" stroke="rgb(51,34,136)" stroke-width="1"/>
<line x1="426" y1="255" x2="433" y2="280" stroke="rgb(51,34,136)" stroke-width="1"/>
<line x1="433" y1="280" x2="440" y2="304" stroke="rgb(51,34,136)" stroke-width="1"/>
<line x1="440" y1="304" x2="447" y2="328" stroke="rgb(51,34,136)" stroke-width="1"/>
<line x1="447" y1="328" x2="454" y2="351" stroke="rgb(51,34,136)" stroke-width="1"/>
<line x1="454" y1="351" x2="461" y2="373" stroke="rgb(51,34,136)" stroke-width="1"/>
<line x1="461" y1="373" x2="468" y2="393" stroke="rgb(51,34,136)" stroke-width="1"/>
<line x1="468" y1="393" x2="475" y2="413" stroke="rgb(51,34,136)" stroke-width="1"/>
<line x1="475" y1="413" x2="482" y2="431" stroke="rgb(51,34,136)" stroke-width="1"/>
<line x1="482" y1="431" x2="489" y2="447" stroke="rgb(51,34,136)" stroke-width="1"/>
<line x1="489" y1="447" x2="496" y2="462" stroke="rgb(51,34,136)" stroke-width="1"/>
<line x1="496" y1="462" x2="503" y2="476" stroke="rgb(51,34,136)" stroke-width="1"/>
<line x1="503" y1="476" x2="510" y2="488" stroke="rgb(51,34,136)" stroke-width="1"/>
<line x1="510" y1="488" x2="517" y2="498" stroke="rgb(51,34,136)" stroke-width="1"/>
<line x1="517" y1="498" x2="524" y2="508" stroke="rgb(51,34,136)" stroke-width="1"/>
<line x1="524" y1="508" x2="531" y2="516" stroke="rgb(51,34,136)" stroke-width="1"/>
<line x1="531" y1="516" x2="538" y2="524" stroke="rgb(51,34,136)" stroke-width="1"/>
<line x1="538" y1="524" x2="545" y2="530" stroke="rgb(51,34,136)" stroke-width="1"/>
<line x1="545" y1="530" x2="552" y2="535" stroke="rgb(51,34,136)" stroke-width="1"/>
<line x1="552" y1="535" x2="559" y2="540" stroke="rgb(51,34,136)" stroke-width="1"/>
<line x1="559" y1="540" x2="566" y2="544" stroke="rgb(51,34,136)" stroke-width="1"/>
<line x1="566" y1="544" x2="573" y2="547" stroke="rgb(51,34,136)" stroke-width="1"/>
<line x1="573" y1="547" x2="580" y2="549" stroke="rgb(51,34,136)" stroke-width="1"/>
<line x1="580" y1="549" x2="587" y2="552" stroke="rgb(51,34,136)" stroke-width="1"/>
<line x1="587" y1="552" x2="594" y2="553" stroke="rgb(51,34,136)" stroke-width="1"/>
<line x1="594" y1="553" x2="601" y2="555" stroke="rgb(51,34,136)" stroke-width="1"/>
<line x1="601" y1="555" x2="608" y2="556" stroke="rgb(51,34,136)" stroke-width="1"/>
<line x1="608" y1="556" x2="615" y2="557" stroke="rgb(51,34,136)" stroke-width="1"/>
<line x1="615" y1="557" x2="622" y2="558" stroke="rgb(51,34,136)" stroke-width="1"/>
<line x1="622" y1="558" x2="629" y2="558" stroke="rgb(51,34,136)" stroke-width="1"/>
<line x1="629" y1="558" x2="636" y2="559" stroke="rgb(51,34,136)" stroke-width="1"/>
<line x1="636" y1="559" x2="643" y2="559" stroke="rgb(51,34,136)" stroke-width="1"/>
<line x1="643" y1="559" x2="650" y2="560" stroke="rgb(51,34,136)" stroke-width="1"/>
<line x1="650" y1="560" x2="657" y2="560" stroke="rgb(51,34,136)" stroke-width="1"/>
<line x1="657" y1="560" x2="664" y2="560" stroke="rgb(51,34,136)" stroke-width="1"/>
<line x1="664" y1="560" x2="671" y2="560" stroke="rgb(51,34,136)" stroke-width="1"/>
<line x1="671" y1="560" x2="678" y2="560" stroke="rgb(51,34,136)" stroke-width="1"/>
<line x1="678" y1="560" x2="685" y2="560" stroke="rgb(51,34,136)" stroke-width="1"/>
<line x1="685" y1="560" x2="692" y2="560" stroke="rgb(51,34,136)" stroke-width="1"/>
<line x1="692" y1="560" x2="699" y2="560" stroke="rgb(51,34,136)" stroke-width="1"/>
<line x1="699" y1="560" x2="706" y2="560" stroke="rgb(51,34,136)" stroke-width="1"/>
<line x1="706" y1="560" x2="713" y2="560" stroke="rgb(51,34,136)" stroke-width="1"/>
<line x1="713" y1="560" x2="720" y2="560" stroke="rgb(51,34,136)" stroke-width="1"/>
<line x1="720" y1="560" x2="727" y2="560" stroke="rgb(51,34,136)" stroke-width="1"/>
<line x1="727" y1="560" x2="734" y2="560" stroke="rgb(51,34,136)" stroke-width="1"/>
<line x1="734" y1="560" x2="741" y2="560" stroke="rgb(51,34,136)" stroke-width="1"/>
<line x1="741" y1="560" x2="748" y2="560" stroke="rgb(51,34,136)" stroke-width="1"/>
<rect width="174" height="43" x="616" y="40" style="fill:rgb(255,255,255);stroke:none"/>
<rect width="174" height="43" x="616" y="40" rx="0" ry="0" style="fill:none;stroke-width:1;stroke:rgb(192,192,192)"/>
<text x="619" y="55" fill="rgb(136,34,85)" font-family="Arial" font-size="12" font-weight="bold">GC count per read</text>
<text x="619" y="75" fill="rgb(51,34,136)" font-family="Arial" font-size="12" font-weight="bold">Theoretical Distribution</text>
</svg>
