<?xml version="1.0" standalone="no"?>
<!DOCTYPE svg PUBLIC "-//W3C//DTD SVG 1.1//EN" "http://www.w3.org/Graphics/SVG/1.1/DTD/svg11.dtd">
<svg width="800" height="600" version="1.1" xmlns="http://www.w3.org/2000/svg">
<rect width="800" height="600" x="0" y="0" style="fill:rgb(238,238,238);stroke:none"/>
<rect width="800" height="600" x="0" y="0" style="fill:rgb(255,255,255);stroke:none"/>
<text x="2" y="566" fill="rgb(0,0,0)" font-family="Arial" font-size="12">0</text>
<text x="2" y="509" fill="rgb(0,0,0)" font-family="Arial" font-size="12">50000</text>
<text x="2" y="451" fill="rgb(0,0,0)" font-family="Arial" font-size="12">100000</text>
<text x="2" y="394" fill="rgb(0,0,0)" font-family="Arial" font-size="12">150000</text>
<text x="2" y="336" fill="rgb(0,0,0)" font-family="Arial" font-size="12">200000</text>
<text x="2" y="279" fill="rgb(0,0,0)" font-family="Arial" font-size="12">250000</text>
<text x="2" y="221" fill="rgb(0,0,0)" font-family="Arial" font-size="12">300000</text>
<text x="2" y="164" fill="rgb(0,0,0)" font-family="Arial" font-size="12">350000</text>
<text x="2" y="106" fill="rgb(0,0,0)" font-family="Arial" font-size="12">400000</text>
<text x="2" y="48" fill="rgb(0,0,0)" font-family="Arial" font-size="12">450000</text>
<text x="282" y="30" fill="rgb(0,0,0)" font-family="Arial" font-size="12">Quality score distribution over all sequences</text>
<line x1="53" y1="560" x2="790" y2="560" stroke="rgb(0,0,0)" stroke-width="1"/>
<line x1="53" y1="560" x2="53" y2="40" stroke="rgb(0,0,0)" stroke-width="1"/>
<text x="281" y="595" fill="rgb(0,0,0)" font-family="Arial" font-size="12">Mean Sequence Quality (Phred Score)</text>
<text x="62" y="575" fill="rgb(0,0,0)" font-family="Arial" font-size="12">6</text>
<rect width="27" height="520" x="80" y="40" style="fill:rgb(230,230,230);stroke:none"/>
<text x="89" y="575" fill="rgb(0,0,0)" font-family="Arial" font-size="12">7</text>
<text x="116" y="575" fill="rgb(0,0,0)" font-family="Arial" font-size="12">8</text>
<rect width="27" height="520" x="134" y="40" style="fill:rgb(230,230,230);stroke:none"/>
<text x="143" y="575" fill="rgb(0,0,0)" font-family="Arial" font-size="12">9</text>
<text x="166" y="575" fill="rgb(0,0,0)" font-family="Arial" font-size="12">10</text>
<rect width="27" height="520" x="188" y="40" style="fill:rgb(230,230,230);stroke:none"/>
<text x="193" y="575" fill="rgb(0,0,0)" font-family="Arial" font-size="12">11</text>
<text x="220" y="575" fill="rgb(0,0,0)" font-family="Arial" font-size="12">12</text>
<rect width="27" height="520" x="242" y="40" style="fill:rgb(230,230,230);stroke:none"/>
<text x="247" y="575" fill="rgb(0,0,0)" font-family="Arial" font-size="12">13</text>
<text x="274" y="575" fill="rgb(0,0,0)" font-family="Arial" font-size="12">14</text>
<rect width="27" height="520" x="296" y="40" style="fill:rgb(230,230,230);stroke:none"/>
<text x="301" y="575" fill="rgb(0,0,0)" font-family="Arial" font-size="12">15</text>
<text x="328" y="575" fill="rgb(0,0,0)" font-family="Arial" font-size="12">16</text>
<rect width="27" height="520" x="350" y="40" style="fill:rgb(230,230,230);stroke:none"/>
<text x="355" y="575" fill="rgb(0,0,0)" font-family="Arial" font-size="12">17</text>
<text x="382" y="575" fill="rgb(0,0,0)" font-family="Arial" font-size="12">18</text>
<rect width="27" height="520" x="404" y="40" style="fill:rgb(230,230,230);stroke:none"/>
<text x="409" y="575" fill="rgb(0,0,0)" font-family="Arial" font-size="12">19</text>
<text x="436" y="575" fill="rgb(0,0,0)" font-family="Arial" font-size="12">20</text>
<rect width="27" height="520" x="458" y="40" style="fill:rgb(230,230,230);stroke:none"/>
<text x="463" y="575" fill="rgb(0,0,0)" font-family="Arial" font-size="12">21</text>
<text x="490" y="575" fill="rgb(0,0,0)" font-family="Arial" font-size="12">22</text>
<rect width="27" height="520" x="512" y="40" style="fill:rgb(230,230,230);stroke:none"/>
<text x="517" y="575" fill="rgb(0,0,0)" font-family="Arial" font-size="12">23</text>
<text x="544" y="575" fill="rgb(0,0,0)" font-family="Arial" font-size="12">24</text>
<rect width="27" height="520" x="566" y="40" style="fill:rgb(230,230,230);stroke:none"/>
<text x="571" y="575" fill="rgb(0,0,0)" font-family="Arial" font-size="12">25</text>
<text x="598" y="575" fill="rgb(0,0,0)" font-family="Arial" font-size="12">26</text>
<rect width="27" height="520" x="620" y="40" style="fill:rgb(230,230,230);stroke:none"/>
<text x="625" y="575" fill="rgb(0,0,0)" font-family="Arial" font-size="12">27</text>
<text x="652" y="575" fill="rgb(0,0,0)" font-family="Arial" font-size="12">28</text>
<rect width="27" height="520" x="674" y="40" style="fill:rgb(230,230,230);stroke:none"/>
<text x="679" y="575" fill="rgb(0,0,0)" font-family="Arial" font-size="12">29</text>
<text x="706" y="575" fill="rgb(0,0,0)" font-family="Arial" font-size="12">30</text>
<rect width="27" height="520" x="728" y="40" style="fill:rgb(230,230,230);stroke:none"/>
<text x="733" y="575" fill="rgb(0,0,0)" font-family="Arial" font-size="12">31</text>
<text x="760" y="575" fill="rgb(0,0,0)" font-family="Arial" font-size="12">32</text>
<line x1="53" y1="560" x2="790" y2="560" stroke="rgb(180,180,180)" stroke-width="1"/>
<line x1="53" y1="503" x2="790" y2="503" stroke="rgb(180,180,180)" stroke-width="1"/>
<line x1="53" y1="445" x2="790" y2="445" stroke="rgb(180,180,180)" stroke-width="1"/>
<line x1="53" y1="388" x2="790" y2="388" stroke="rgb(180,180,180)" stroke-width="1"/>
<line x1="53" y1="330" x2="790" y2="330" stroke="rgb(180,180,180)" stroke-width="1"/>
<line x1="53" y1="273" x2="790" y2="273" stroke="rgb(180,180,180)" stroke-width="1"/>
<line x1="53" y1="215" x2="790" y2="215" stroke="rgb(180,180,180)" stroke-width="1"/>
<line x1="53" y1="158" x2="790" y2="158" stroke="rgb(180,180,180)" stroke-width="1"/>
<line x1="53" y1="100" x2="790" y2="100" stroke="rgb(180,180,180)" stroke-width="1"/>
<line x1="53" y1="42" x2="790" y2="42" stroke="rgb(180,180,180)" stroke-width="1"/>
<line x1="66" y1="557" x2="93" y2="560" stroke="rgb(136,34,85)" stroke-width="1"/>
<line x1="93" y1="560" x2="120" y2="559" stroke="rgb(136,34,85)" stroke-width="1"/>
<line x1="120" y1="559" x2="147" y2="559" stroke="rgb(136,34,85)" stroke-width="1"/>
<line x1="147" y1="559" x2="174" y2="559" stroke="rgb(136,34,85)" stroke-width="1"/>
<line x1="174" y1="559" x2="201" y2="558" stroke="rgb(136,34,85)" stroke-width="1"/>
<line x1="201" y1="558" x2="228" y2="557" stroke="rgb(136,34,85)" stroke-width="1"/>
<line x1="228" y1="557" x2="255" y2="556" stroke="rgb(136,34,85)" stroke-width="1"/>
<line x1="255" y1="556" x2="282" y2="555" stroke="rgb(136,34,85)" stroke-width="1"/>
<line x1="282" y1="555" x2="309" y2="555" stroke="rgb(136,34,85)" stroke-width="1"/>
<line x1="309" y1="555" x2="336" y2="554" stroke="rgb(136,34,85)" stroke-width="1"/>
<line x1="336" y1="554" x2="363" y2="553" stroke="rgb(136,34,85)" stroke-width="1"/>
<line x1="363" y1="553" x2="390" y2="553" stroke="rgb(136,34,85)" stroke-width="1"/>
<line x1="390" y1="553" x2="417" y2="551" stroke="rgb(136,34,85)" stroke-width="1"/>
<line x1="417" y1="551" x2="444" y2="550" stroke="rgb(136,34,85)" stroke-width="1"/>
<line x1="444" y1="550" x2="471" y2="548" stroke="rgb(136,34,85)" stroke-width="1"/>
<line x1="471" y1="548" x2="498" y2="547" stroke="rgb(136,34,85)" stroke-width="1"/>
<line x1="498" y1="547" x2="525" y2="545" stroke="rgb(136,34,85)" stroke-width="1"/>
<line x1="525" y1="545" x2="552" y2="542" stroke="rgb(136,34,85)" stroke-width="1"/>
<line x1="552" y1="542" x2="579" y2="539" stroke="rgb(136,34,85)" stroke-width="1"/>
<line x1="579" y1="539" x2="606" y2="533" stroke="rgb(136,34,85)" stroke-width="1"/>
<line x1="606" y1="533" x2="633" y2="525" stroke="rgb(136,34,85)" stroke-width="1"/>
<line x1="633" y1="525" x2="660" y2="509" stroke="rgb(136,34,85)" stroke-width="1"/>
<line x1="660" y1="509" x2="687" y2="475" stroke="rgb(136,34,85)" stroke-width="1"/>
<line x1="687" y1="475" x2="714" y2="342" stroke="rgb(136,34,85)" stroke-width="1"/>
<line x1="714" y1="342" x2="741" y2="40" stroke="rgb(136,34,85)" stroke-width="1"/>
<line x1="741" y1="40" x2="768" y2="520" stroke="rgb(136,34,85)" stroke-width="1"/>
<rect width="183" height="23" x="607" y="40" style="fill:rgb(255,255,255);stroke:none"/>
<rect width="183" height="23" x="607" y="40" rx="0" ry="0" style="fill:none;stroke-width:1;stroke:rgb(192,192,192)"/>
<text x="610" y="55" fill="rgb(136,34,85)" font-family="Arial" font-size="12" font-weight="bold">Average Quality per read</text>
</svg>
