<?xml version="1.0" standalone="no"?>
<!DOCTYPE svg PUBLIC "-//W3C//DTD SVG 1.1//EN" "http://www.w3.org/Graphics/SVG/1.1/DTD/svg11.dtd">
<svg width="800" height="600" version="1.1" xmlns="http://www.w3.org/2000/svg">
<rect width="800" height="600" x="0" y="0" style="fill:rgb(238,238,238);stroke:none"/>
<rect width="800" height="600" x="0" y="0" style="fill:rgb(255,255,255);stroke:none"/>
<text x="2" y="566" fill="rgb(0,0,0)" font-family="Arial" font-size="12">0</text>
<text x="2" y="496" fill="rgb(0,0,0)" font-family="Arial" font-size="12">100000</text>
<text x="2" y="425" fill="rgb(0,0,0)" font-family="Arial" font-size="12">200000</text>
<text x="2" y="355" fill="rgb(0,0,0)" font-family="Arial" font-size="12">300000</text>
<text x="2" y="284" fill="rgb(0,0,0)" font-family="Arial" font-size="12">400000</text>
<text x="2" y="213" fill="rgb(0,0,0)" font-family="Arial" font-size="12">500000</text>
<text x="2" y="143" fill="rgb(0,0,0)" font-family="Arial" font-size="12">600000</text>
<text x="2" y="72" fill="rgb(0,0,0)" font-family="Arial" font-size="12">700000</text>
<text x="258" y="30" fill="rgb(0,0,0)" font-family="Arial" font-size="12">Distribution of sequence lengths over all sequences</text>
<line x1="53" y1="560" x2="790" y2="560" stroke="rgb(0,0,0)" stroke-width="1"/>
<line x1="53" y1="560" x2="53" y2="40" stroke="rgb(0,0,0)" stroke-width="1"/>
<text x="330" y="595" fill="rgb(0,0,0)" font-family="Arial" font-size="12">Sequence Length (bp)</text>
<text x="163" y="575" fill="rgb(0,0,0)" font-family="Arial" font-size="12">100</text>
<rect width="245" height="520" x="298" y="40" style="fill:rgb(230,230,230);stroke:none"/>
<text x="408" y="575" fill="rgb(0,0,0)" font-family="Arial" font-size="12">101</text>
<text x="653" y="575" fill="rgb(0,0,0)" font-family="Arial" font-size="12">102</text>
<line x1="53" y1="560" x2="790" y2="560" stroke="rgb(180,180,180)" stroke-width="1"/>
<line x1="53" y1="490" x2="790" y2="490" stroke="rgb(180,180,180)" stroke-width="1"/>
<line x1="53" y1="419" x2="790" y2="419" stroke="rgb(180,180,180)" stroke-width="1"/>
<line x1="53" y1="349" x2="790" y2="349" stroke="rgb(180,180,180)" stroke-width="1"/>
<line x1="53" y1="278" x2="790" y2="278" stroke="rgb(180,180,180)" stroke-width="1"/>
<line x1="53" y1="207" x2="790" y2="207" stroke="rgb(180,180,180)" stroke-width="1"/>
<line x1="53" y1="137" x2="790" y2="137" stroke="rgb(180,180,180)" stroke-width="1"/>
<line x1="53" y1="66" x2="790" y2="66" stroke="rgb(180,180,180)" stroke-width="1"/>
<line x1="175" y1="560" x2="420" y2="40" stroke="rgb(136,34,85)" stroke-width="1"/>
<line x1="420" y1="40" x2="665" y2="560" stroke="rgb(136,34,85)" stroke-width="1"/>
<rect width="130" height="23" x="660" y="40" style="fill:rgb(255,255,255);stroke:none"/>
<rect width="130" height="23" x="660" y="40" rx="0" ry="0" style="fill:none;stroke-width:1;stroke:rgb(192,192,192)"/>
<text x="663" y="55" fill="rgb(136,34,85)" font-family="Arial" font-size="12" font-weight="bold">Sequence Length</text>
</svg>
