<?xml version="1.0" standalone="no"?>
<!DOCTYPE svg PUBLIC "-//W3C//DTD SVG 1.1//EN" "http://www.w3.org/Graphics/SVG/1.1/DTD/svg11.dtd">
<svg width="800" height="600" version="1.1" xmlns="http://www.w3.org/2000/svg">
<rect width="800" height="600" x="0" y="0" style="fill:rgb(238,238,238);stroke:none"/>
<rect width="800" height="600" x="0" y="0" style="fill:rgb(255,255,255);stroke:none"/>
<text x="2" y="566" fill="rgb(0,0,0)" font-family="Arial" font-size="12">0</text>
<text x="2" y="538" fill="rgb(0,0,0)" font-family="Arial" font-size="12">2</text>
<text x="2" y="510" fill="rgb(0,0,0)" font-family="Arial" font-size="12">4</text>
<text x="2" y="482" fill="rgb(0,0,0)" font-family="Arial" font-size="12">6</text>
<text x="2" y="454" fill="rgb(0,0,0)" font-family="Arial" font-size="12">8</text>
<text x="2" y="426" fill="rgb(0,0,0)" font-family="Arial" font-size="12">10</text>
<text x="2" y="398" fill="rgb(0,0,0)" font-family="Arial" font-size="12">12</text>
<text x="2" y="370" fill="rgb(0,0,0)" font-family="Arial" font-size="12">14</text>
<text x="2" y="342" fill="rgb(0,0,0)" font-family="Arial" font-size="12">16</text>
<text x="2" y="314" fill="rgb(0,0,0)" font-family="Arial" font-size="12">18</text>
<text x="2" y="285" fill="rgb(0,0,0)" font-family="Arial" font-size="12">20</text>
<text x="2" y="257" fill="rgb(0,0,0)" font-family="Arial" font-size="12">22</text>
<text x="2" y="229" fill="rgb(0,0,0)" font-family="Arial" font-size="12">24</text>
<text x="2" y="201" fill="rgb(0,0,0)" font-family="Arial" font-size="12">26</text>
<text x="2" y="173" fill="rgb(0,0,0)" font-family="Arial" font-size="12">28</text>
<text x="2" y="145" fill="rgb(0,0,0)" font-family="Arial" font-size="12">30</text>
<text x="2" y="117" fill="rgb(0,0,0)" font-family="Arial" font-size="12">32</text>
<text x="2" y="89" fill="rgb(0,0,0)" font-family="Arial" font-size="12">34</text>
<text x="2" y="61" fill="rgb(0,0,0)" font-family="Arial" font-size="12">36</text>
<text x="206" y="30" fill="rgb(0,0,0)" font-family="Arial" font-size="12">Quality scores across all bases (Sanger / Illumina 1.9 encoding)</text>
<rect width="17" height="281" x="21" y="279" style="fill:rgb(230,175,175);stroke:none"/>
<rect width="17" height="112" x="21" y="167" style="fill:rgb(230,215,175);stroke:none"/>
<rect width="17" height="127" x="21" y="40" style="fill:rgb(175,230,175);stroke:none"/>
<text x="25" y="575" fill="rgb(0,0,0)" font-family="Arial" font-size="12">1</text>
<rect width="17" height="281" x="38" y="279" style="fill:rgb(230,195,195);stroke:none"/>
<rect width="17" height="112" x="38" y="167" style="fill:rgb(230,220,195);stroke:none"/>
<rect width="17" height="127" x="38" y="40" style="fill:rgb(195,230,195);stroke:none"/>
<text x="42" y="575" fill="rgb(0,0,0)" font-family="Arial" font-size="12">2</text>
<rect width="17" height="281" x="55" y="279" style="fill:rgb(230,175,175);stroke:none"/>
<rect width="17" height="112" x="55" y="167" style="fill:rgb(230,215,175);stroke:none"/>
<rect width="17" height="127" x="55" y="40" style="fill:rgb(175,230,175);stroke:none"/>
<text x="59" y="575" fill="rgb(0,0,0)" font-family="Arial" font-size="12">3</text>
<rect width="17" height="281" x="72" y="279" style="fill:rgb(230,195,195);stroke:none"/>
<rect width="17" height="112" x="72" y="167" style="fill:rgb(230,220,195);stroke:none"/>
<rect width="17" height="127" x="72" y="40" style="fill:rgb(195,230,195);stroke:none"/>
<text x="76" y="575" fill="rgb(0,0,0)" font-family="Arial" font-size="12">4</text>
<rect width="17" height="281" x="89" y="279" style="fill:rgb(230,175,175);stroke:none"/>
<rect width="17" height="112" x="89" y="167" style="fill:rgb(230,215,175);stroke:none"/>
<rect width="17" height="127" x="89" y="40" style="fill:rgb(175,230,175);stroke:none"/>
<text x="93" y="575" fill="rgb(0,0,0)" font-family="Arial" font-size="12">5</text>
<rect width="17" height="281" x="106" y="279" style="fill:rgb(230,195,195);stroke:none"/>
<rect width="17" height="112" x="106" y="167" style="fill:rgb(230,220,195);stroke:none"/>
<rect width="17" height="127" x="106" y="40" style="fill:rgb(195,230,195);stroke:none"/>
<text x="110" y="575" fill="rgb(0,0,0)" font-family="Arial" font-size="12">6</text>
<rect width="17" height="281" x="123" y="279" style="fill:rgb(230,175,175);stroke:none"/>
<rect width="17" height="112" x="123" y="167" style="fill:rgb(230,215,175);stroke:none"/>
<rect width="17" height="127" x="123" y="40" style="fill:rgb(175,230,175);stroke:none"/>
<text x="127" y="575" fill="rgb(0,0,0)" font-family="Arial" font-size="12">7</text>
<rect width="17" height="281" x="140" y="279" style="fill:rgb(230,195,195);stroke:none"/>
<rect width="17" height="112" x="140" y="167" style="fill:rgb(230,220,195);stroke:none"/>
<rect width="17" height="127" x="140" y="40" style="fill:rgb(195,230,195);stroke:none"/>
<text x="144" y="575" fill="rgb(0,0,0)" font-family="Arial" font-size="12">8</text>
<rect width="17" height="281" x="157" y="279" style="fill:rgb(230,175,175);stroke:none"/>
<rect width="17" height="112" x="157" y="167" style="fill:rgb(230,215,175);stroke:none"/>
<rect width="17" height="127" x="157" y="40" style="fill:rgb(175,230,175);stroke:none"/>
<text x="161" y="575" fill="rgb(0,0,0)" font-family="Arial" font-size="12">9</text>
<rect width="17" height="281" x="174" y="279" style="fill:rgb(230,195,195);stroke:none"/>
<rect width="17" height="112" x="174" y="167" style="fill:rgb(230,220,195);stroke:none"/>
<rect width="17" height="127" x="174" y="40" style="fill:rgb(195,230,195);stroke:none"/>
<rect width="17" height="281" x="191" y="279" style="fill:rgb(230,175,175);stroke:none"/>
<rect width="17" height="112" x="191" y="167" style="fill:rgb(230,215,175);stroke:none"/>
<rect width="17" height="127" x="191" y="40" style="fill:rgb(175,230,175);stroke:none"/>
<text x="181" y="575" fill="rgb(0,0,0)" font-family="Arial" font-size="12">12-13</text>
<rect width="17" height="281" x="208" y="279" style="fill:rgb(230,195,195);stroke:none"/>
<rect width="17" height="112" x="208" y="167" style="fill:rgb(230,220,195);stroke:none"/>
<rect width="17" height="127" x="208" y="40" style="fill:rgb(195,230,195);stroke:none"/>
<rect width="17" height="281" x="225" y="279" style="fill:rgb(230,175,175);stroke:none"/>
<rect width="17" height="112" x="225" y="167" style="fill:rgb(230,215,175);stroke:none"/>
<rect width="17" height="127" x="225" y="40" style="fill:rgb(175,230,175);stroke:none"/>
<rect width="17" height="281" x="242" y="279" style="fill:rgb(230,195,195);stroke:none"/>
<rect width="17" height="112" x="242" y="167" style="fill:rgb(230,220,195);stroke:none"/>
<rect width="17" height="127" x="242" y="40" style="fill:rgb(195,230,195);stroke:none"/>
<text x="232" y="575" fill="rgb(0,0,0)" font-family="Arial" font-size="12">18-19</text>
<rect width="17" height="281" x="259" y="279" style="fill:rgb(230,175,175);stroke:none"/>
<rect width="17" height="112" x="259" y="167" style="fill:rgb(230,215,175);stroke:none"/>
<rect width="17" height="127" x="259" y="40" style="fill:rgb(175,230,175);stroke:none"/>
<rect width="17" height="281" x="276" y="279" style="fill:rgb(230,195,195);stroke:none"/>
<rect width="17" height="112" x="276" y="167" style="fill:rgb(230,220,195);stroke:none"/>
<rect width="17" height="127" x="276" y="40" style="fill:rgb(195,230,195);stroke:none"/>
<rect width="17" height="281" x="293" y="279" style="fill:rgb(230,175,175);stroke:none"/>
<rect width="17" height="112" x="293" y="167" style="fill:rgb(230,215,175);stroke:none"/>
<rect width="17" height="127" x="293" y="40" style="fill:rgb(175,230,175);stroke:none"/>
<text x="283" y="575" fill="rgb(0,0,0)" font-family="Arial" font-size="12">24-25</text>
<rect width="17" height="281" x="310" y="279" style="fill:rgb(230,195,195);stroke:none"/>
<rect width="17" height="112" x="310" y="167" style="fill:rgb(230,220,195);stroke:none"/>
<rect width="17" height="127" x="310" y="40" style="fill:rgb(195,230,195);stroke:none"/>
<rect width="17" height="281" x="327" y="279" style="fill:rgb(230,175,175);stroke:none"/>
<rect width="17" height="112" x="327" y="167" style="fill:rgb(230,215,175);stroke:none"/>
<rect width="17" height="127" x="327" y="40" style="fill:rgb(175,230,175);stroke:none"/>
<rect width="17" height="281" x="344" y="279" style="fill:rgb(230,195,195);stroke:none"/>
<rect width="17" height="112" x="344" y="167" style="fill:rgb(230,220,195);stroke:none"/>
<rect width="17" height="127" x="344" y="40" style="fill:rgb(195,230,195);stroke:none"/>
<text x="334" y="575" fill="rgb(0,0,0)" font-family="Arial" font-size="12">30-31</text>
<rect width="17" height="281" x="361" y="279" style="fill:rgb(230,175,175);stroke:none"/>
<rect width="17" height="112" x="361" y="167" style="fill:rgb(230,215,175);stroke:none"/>
<rect width="17" height="127" x="361" y="40" style="fill:rgb(175,230,175);stroke:none"/>
<rect width="17" height="281" x="378" y="279" style="fill:rgb(230,195,195);stroke:none"/>
<rect width="17" height="112" x="378" y="167" style="fill:rgb(230,220,195);stroke:none"/>
<rect width="17" height="127" x="378" y="40" style="fill:rgb(195,230,195);stroke:none"/>
<rect width="17" height="281" x="395" y="279" style="fill:rgb(230,175,175);stroke:none"/>
<rect width="17" height="112" x="395" y="167" style="fill:rgb(230,215,175);stroke:none"/>
<rect width="17" height="127" x="395" y="40" style="fill:rgb(175,230,175);stroke:none"/>
<text x="385" y="575" fill="rgb(0,0,0)" font-family="Arial" font-size="12">36-37</text>
<rect width="17" height="281" x="412" y="279" style="fill:rgb(230,195,195);stroke:none"/>
<rect width="17" height="112" x="412" y="167" style="fill:rgb(230,220,195);stroke:none"/>
<rect width="17" height="127" x="412" y="40" style="fill:rgb(195,230,195);stroke:none"/>
<rect width="17" height="281" x="429" y="279" style="fill:rgb(230,175,175);stroke:none"/>
<rect width="17" height="112" x="429" y="167" style="fill:rgb(230,215,175);stroke:none"/>
<rect width="17" height="127" x="429" y="40" style="fill:rgb(175,230,175);stroke:none"/>
<rect width="17" height="281" x="446" y="279" style="fill:rgb(230,195,195);stroke:none"/>
<rect width="17" height="112" x="446" y="167" style="fill:rgb(230,220,195);stroke:none"/>
<rect width="17" height="127" x="446" y="40" style="fill:rgb(195,230,195);stroke:none"/>
<text x="436" y="575" fill="rgb(0,0,0)" font-family="Arial" font-size="12">42-43</text>
<rect width="17" height="281" x="463" y="279" style="fill:rgb(230,175,175);stroke:none"/>
<rect width="17" height="112" x="463" y="167" style="fill:rgb(230,215,175);stroke:none"/>
<rect width="17" height="127" x="463" y="40" style="fill:rgb(175,230,175);stroke:none"/>
<rect width="17" height="281" x="480" y="279" style="fill:rgb(230,195,195);stroke:none"/>
<rect width="17" height="112" x="480" y="167" style="fill:rgb(230,220,195);stroke:none"/>
<rect width="17" height="127" x="480" y="40" style="fill:rgb(195,230,195);stroke:none"/>
<rect width="17" height="281" x="497" y="279" style="fill:rgb(230,175,175);stroke:none"/>
<rect width="17" height="112" x="497" y="167" style="fill:rgb(230,215,175);stroke:none"/>
<rect width="17" height="127" x="497" y="40" style="fill:rgb(175,230,175);stroke:none"/>
<text x="487" y="575" fill="rgb(0,0,0)" font-family="Arial" font-size="12">48-49</text>
<rect width="17" height="281" x="514" y="279" style="fill:rgb(230,195,195);stroke:none"/>
<rect width="17" height="112" x="514" y="167" style="fill:rgb(230,220,195);stroke:none"/>
<rect width="17" height="127" x="514" y="40" style="fill:rgb(195,230,195);stroke:none"/>
<rect width="17" height="281" x="531" y="279" style="fill:rgb(230,175,175);stroke:none"/>
<rect width="17" height="112" x="531" y="167" style="fill:rgb(230,215,175);stroke:none"/>
<rect width="17" height="127" x="531" y="40" style="fill:rgb(175,230,175);stroke:none"/>
<rect width="17" height="281" x="548" y="279" style="fill:rgb(230,195,195);stroke:none"/>
<rect width="17" height="112" x="548" y="167" style="fill:rgb(230,220,195);stroke:none"/>
<rect width="17" height="127" x="548" y="40" style="fill:rgb(195,230,195);stroke:none"/>
<text x="538" y="575" fill="rgb(0,0,0)" font-family="Arial" font-size="12">54-55</text>
<rect width="17" height="281" x="565" y="279" style="fill:rgb(230,175,175);stroke:none"/>
<rect width="17" height="112" x="565" y="167" style="fill:rgb(230,215,175);stroke:none"/>
<rect width="17" height="127" x="565" y="40" style="fill:rgb(175,230,175);stroke:none"/>
<rect width="17" height="281" x="582" y="279" style="fill:rgb(230,195,195);stroke:none"/>
<rect width="17" height="112" x="582" y="167" style="fill:rgb(230,220,195);stroke:none"/>
<rect width="17" height="127" x="582" y="40" style="fill:rgb(195,230,195);stroke:none"/>
<rect width="17" height="281" x="599" y="279" style="fill:rgb(230,175,175);stroke:none"/>
<rect width="17" height="112" x="599" y="167" style="fill:rgb(230,215,175);stroke:none"/>
<rect width="17" height="127" x="599" y="40" style="fill:rgb(175,230,175);stroke:none"/>
<text x="589" y="575" fill="rgb(0,0,0)" font-family="Arial" font-size="12">60-61</text>
<rect width="17" height="281" x="616" y="279" style="fill:rgb(230,195,195);stroke:none"/>
<rect width="17" height="112" x="616" y="167" style="fill:rgb(230,220,195);stroke:none"/>
<rect width="17" height="127" x="616" y="40" style="fill:rgb(195,230,195);stroke:none"/>
<rect width="17" height="281" x="633" y="279" style="fill:rgb(230,175,175);stroke:none"/>
<rect width="17" height="112" x="633" y="167" style="fill:rgb(230,215,175);stroke:none"/>
<rect width="17" height="127" x="633" y="40" style="fill:rgb(175,230,175);stroke:none"/>
<rect width="17" height="281" x="650" y="279" style="fill:rgb(230,195,195);stroke:none"/>
<rect width="17" height="112" x="650" y="167" style="fill:rgb(230,220,195);stroke:none"/>
<rect width="17" height="127" x="650" y="40" style="fill:rgb(195,230,195);stroke:none"/>
<text x="640" y="575" fill="rgb(0,0,0)" font-family="Arial" font-size="12">66-67</text>
<rect width="17" height="281" x="667" y="279" style="fill:rgb(230,175,175);stroke:none"/>
<rect width="17" height="112" x="667" y="167" style="fill:rgb(230,215,175);stroke:none"/>
<rect width="17" height="127" x="667" y="40" style="fill:rgb(175,230,175);stroke:none"/>
<rect width="17" height="281" x="684" y="279" style="fill:rgb(230,195,195);stroke:none"/>
<rect width="17" height="112" x="684" y="167" style="fill:rgb(230,220,195);stroke:none"/>
<rect width="17" height="127" x="684" y="40" style="fill:rgb(195,230,195);stroke:none"/>
<rect width="17" height="281" x="701" y="279" style="fill:rgb(230,175,175);stroke:none"/>
<rect width="17" height="112" x="701" y="167" style="fill:rgb(230,215,175);stroke:none"/>
<rect width="17" height="127" x="701" y="40" style="fill:rgb(175,230,175);stroke:none"/>
<text x="691" y="575" fill="rgb(0,0,0)" font-family="Arial" font-size="12">72-73</text>
<rect width="17" height="281" x="718" y="279" style="fill:rgb(230,195,195);stroke:none"/>
<rect width="17" height="112" x="718" y="167" style="fill:rgb(230,220,195);stroke:none"/>
<rect width="17" height="127" x="718" y="40" style="fill:rgb(195,230,195);stroke:none"/>
<rect width="17" height="281" x="735" y="279" style="fill:rgb(230,175,175);stroke:none"/>
<rect width="17" height="112" x="735" y="167" style="fill:rgb(230,215,175);stroke:none"/>
<rect width="17" height="127" x="735" y="40" style="fill:rgb(175,230,175);stroke:none"/>
<text x="735" y="575" fill="rgb(0,0,0)" font-family="Arial" font-size="12">76</text>
<line x1="21" y1="560" x2="790" y2="560" stroke="rgb(0,0,0)" stroke-width="1"/>
<line x1="21" y1="560" x2="21" y2="40" stroke="rgb(0,0,0)" stroke-width="1"/>
<text x="336" y="595" fill="rgb(0,0,0)" font-family="Arial" font-size="12">Position in read (bp)</text>
<rect width="13" height="84" x="23" y="97" style="fill:rgb(240,240,0);stroke:none"/>
<rect width="13" height="84" x="23" y="97" rx="0" ry="0" style="fill:none;stroke-width:1;stroke:rgb(0,0,0)"/>
<line x1="29" y1="97" x2="29" y2="97" stroke="rgb(0,0,0)" stroke-width="1"/>
<line x1="23" y1="97" x2="36" y2="97" stroke="rgb(0,0,0)" stroke-width="1"/>
<line x1="29" y1="181" x2="29" y2="181" stroke="rgb(0,0,0)" stroke-width="1"/>
<line x1="23" y1="181" x2="36" y2="181" stroke="rgb(0,0,0)" stroke-width="1"/>
<line x1="23" y1="181" x2="36" y2="181" stroke="rgb(200,0,0)" stroke-width="1"/>
<rect width="13" height="84" x="40" y="97" style="fill:rgb(240,240,0);stroke:none"/>
<rect width="13" height="84" x="40" y="97" rx="0" ry="0" style="fill:none;stroke-width:1;stroke:rgb(0,0,0)"/>
<line x1="46" y1="97" x2="46" y2="97" stroke="rgb(0,0,0)" stroke-width="1"/>
<line x1="40" y1="97" x2="53" y2="97" stroke="rgb(0,0,0)" stroke-width="1"/>
<line x1="46" y1="181" x2="46" y2="181" stroke="rgb(0,0,0)" stroke-width="1"/>
<line x1="40" y1="181" x2="53" y2="181" stroke="rgb(0,0,0)" stroke-width="1"/>
<line x1="40" y1="181" x2="53" y2="181" stroke="rgb(200,0,0)" stroke-width="1"/>
<rect width="13" height="84" x="57" y="97" style="fill:rgb(240,240,0);stroke:none"/>
<rect width="13" height="84" x="57" y="97" rx="0" ry="0" style="fill:none;stroke-width:1;stroke:rgb(0,0,0)"/>
<line x1="63" y1="97" x2="63" y2="97" stroke="rgb(0,0,0)" stroke-width="1"/>
<line x1="57" y1="97" x2="70" y2="97" stroke="rgb(0,0,0)" stroke-width="1"/>
<line x1="63" y1="181" x2="63" y2="181" stroke="rgb(0,0,0)" stroke-width="1"/>
<line x1="57" y1="181" x2="70" y2="181" stroke="rgb(0,0,0)" stroke-width="1"/>
<line x1="57" y1="181" x2="70" y2="181" stroke="rgb(200,0,0)" stroke-width="1"/>
<rect width="13" height="0" x="74" y="181" style="fill:rgb(240,240,0);stroke:none"/>
<rect width="13" height="0" x="74" y="181" rx="0" ry="0" style="fill:none;stroke-width:1;stroke:rgb(0,0,0)"/>
<line x1="80" y1="97" x2="80" y2="181" stroke="rgb(0,0,0)" stroke-width="1"/>
<line x1="74" y1="97" x2="87" y2="97" stroke="rgb(0,0,0)" stroke-width="1"/>
<line x1="80" y1="181" x2="80" y2="181" stroke="rgb(0,0,0)" stroke-width="1"/>
<line x1="74" y1="181" x2="87" y2="181" stroke="rgb(0,0,0)" stroke-width="1"/>
<line x1="74" y1="181" x2="87" y2="181" stroke="rgb(200,0,0)" stroke-width="1"/>
<rect width="13" height="0" x="91" y="97" style="fill:rgb(240,240,0);stroke:none"/>
<rect width="13" height="0" x="91" y="97" rx="0" ry="0" style="fill:none;stroke-width:1;stroke:rgb(0,0,0)"/>
<line x1="97" y1="97" x2="97" y2="97" stroke="rgb(0,0,0)" stroke-width="1"/>
<line x1="91" y1="97" x2="104" y2="97" stroke="rgb(0,0,0)" stroke-width="1"/>
<line x1="97" y1="181" x2="97" y2="97" stroke="rgb(0,0,0)" stroke-width="1"/>
<line x1="91" y1="181" x2="104" y2="181" stroke="rgb(0,0,0)" stroke-width="1"/>
<line x1="91" y1="97" x2="104" y2="97" stroke="rgb(200,0,0)" stroke-width="1"/>
<rect width="13" height="0" x="108" y="97" style="fill:rgb(240,240,0);stroke:none"/>
<rect width="13" height="0" x="108" y="97" rx="0" ry="0" style="fill:none;stroke-width:1;stroke:rgb(0,0,0)"/>
<line x1="114" y1="97" x2="114" y2="97" stroke="rgb(0,0,0)" stroke-width="1"/>
<line x1="108" y1="97" x2="121" y2="97" stroke="rgb(0,0,0)" stroke-width="1"/>
<line x1="114" y1="181" x2="114" y2="97" stroke="rgb(0,0,0)" stroke-width="1"/>
<line x1="108" y1="181" x2="121" y2="181" stroke="rgb(0,0,0)" stroke-width="1"/>
<line x1="108" y1="97" x2="121" y2="97" stroke="rgb(200,0,0)" stroke-width="1"/>
<rect width="13" height="0" x="125" y="97" style="fill:rgb(240,240,0);stroke:none"/>
<rect width="13" height="0" x="125" y="97" rx="0" ry="0" style="fill:none;stroke-width:1;stroke:rgb(0,0,0)"/>
<line x1="131" y1="97" x2="131" y2="97" stroke="rgb(0,0,0)" stroke-width="1"/>
<line x1="125" y1="97" x2="138" y2="97" stroke="rgb(0,0,0)" stroke-width="1"/>
<line x1="131" y1="181" x2="131" y2="97" stroke="rgb(0,0,0)" stroke-width="1"/>
<line x1="125" y1="181" x2="138" y2="181" stroke="rgb(0,0,0)" stroke-width="1"/>
<line x1="125" y1="97" x2="138" y2="97" stroke="rgb(200,0,0)" stroke-width="1"/>
<rect width="13" height="0" x="142" y="97" style="fill:rgb(240,240,0);stroke:none"/>
<rect width="13" height="0" x="142" y="97" rx="0" ry="0" style="fill:none;stroke-width:1;stroke:rgb(0,0,0)"/>
<line x1="148" y1="97" x2="148" y2="97" stroke="rgb(0,0,0)" stroke-width="1"/>
<line x1="142" y1="97" x2="155" y2="97" stroke="rgb(0,0,0)" stroke-width="1"/>
<line x1="148" y1="181" x2="148" y2="97" stroke="rgb(0,0,0)" stroke-width="1"/>
<line x1="142" y1="181" x2="155" y2="181" stroke="rgb(0,0,0)" stroke-width="1"/>
<line x1="142" y1="97" x2="155" y2="97" stroke="rgb(200,0,0)" stroke-width="1"/>
<rect width="13" height="0" x="159" y="97" style="fill:rgb(240,240,0);stroke:none"/>
<rect width="13" height="0" x="159" y="97" rx="0" ry="0" style="fill:none;stroke-width:1;stroke:rgb(0,0,0)"/>
<line x1="165" y1="97" x2="165" y2="97" stroke="rgb(0,0,0)" stroke-width="1"/>
<line x1="159" y1="97" x2="172" y2="97" stroke="rgb(0,0,0)" stroke-width="1"/>
<line x1="165" y1="181" x2="165" y2="97" stroke="rgb(0,0,0)" stroke-width="1"/>
<line x1="159" y1="181" x2="172" y2="181" stroke="rgb(0,0,0)" stroke-width="1"/>
<line x1="159" y1="97" x2="172" y2="97" stroke="rgb(200,0,0)" stroke-width="1"/>
<rect width="13" height="0" x="176" y="97" style="fill:rgb(240,240,0);stroke:none"/>
<rect width="13" height="0" x="176" y="97" rx="0" ry="0" style="fill:none;stroke-width:1;stroke:rgb(0,0,0)"/>
<line x1="182" y1="97" x2="182" y2="97" stroke="rgb(0,0,0)" stroke-width="1"/>
<line x1="176" y1="97" x2="189" y2="97" stroke="rgb(0,0,0)" stroke-width="1"/>
<line x1="182" y1="181" x2="182" y2="97" stroke="rgb(0,0,0)" stroke-width="1"/>
<line x1="176" y1="181" x2="189" y2="181" stroke="rgb(0,0,0)" stroke-width="1"/>
<line x1="176" y1="97" x2="189" y2="97" stroke="rgb(200,0,0)" stroke-width="1"/>
<rect width="13" height="0" x="193" y="97" style="fill:rgb(240,240,0);stroke:none"/>
<rect width="13" height="0" x="193" y="97" rx="0" ry="0" style="fill:none;stroke-width:1;stroke:rgb(0,0,0)"/>
<line x1="199" y1="97" x2="199" y2="97" stroke="rgb(0,0,0)" stroke-width="1"/>
<line x1="193" y1="97" x2="206" y2="97" stroke="rgb(0,0,0)" stroke-width="1"/>
<line x1="199" y1="181" x2="199" y2="97" stroke="rgb(0,0,0)" stroke-width="1"/>
<line x1="193" y1="181" x2="206" y2="181" stroke="rgb(0,0,0)" stroke-width="1"/>
<line x1="193" y1="97" x2="206" y2="97" stroke="rgb(200,0,0)" stroke-width="1"/>
<rect width="13" height="0" x="210" y="97" style="fill:rgb(240,240,0);stroke:none"/>
<rect width="13" height="0" x="210" y="97" rx="0" ry="0" style="fill:none;stroke-width:1;stroke:rgb(0,0,0)"/>
<line x1="216" y1="97" x2="216" y2="97" stroke="rgb(0,0,0)" stroke-width="1"/>
<line x1="210" y1="97" x2="223" y2="97" stroke="rgb(0,0,0)" stroke-width="1"/>
<line x1="216" y1="181" x2="216" y2="97" stroke="rgb(0,0,0)" stroke-width="1"/>
<line x1="210" y1="181" x2="223" y2="181" stroke="rgb(0,0,0)" stroke-width="1"/>
<line x1="210" y1="97" x2="223" y2="97" stroke="rgb(200,0,0)" stroke-width="1"/>
<rect width="13" height="0" x="227" y="97" style="fill:rgb(240,240,0);stroke:none"/>
<rect width="13" height="0" x="227" y="97" rx="0" ry="0" style="fill:none;stroke-width:1;stroke:rgb(0,0,0)"/>
<line x1="233" y1="97" x2="233" y2="97" stroke="rgb(0,0,0)" stroke-width="1"/>
<line x1="227" y1="97" x2="240" y2="97" stroke="rgb(0,0,0)" stroke-width="1"/>
<line x1="233" y1="181" x2="233" y2="97" stroke="rgb(0,0,0)" stroke-width="1"/>
<line x1="227" y1="181" x2="240" y2="181" stroke="rgb(0,0,0)" stroke-width="1"/>
<line x1="227" y1="97" x2="240" y2="97" stroke="rgb(200,0,0)" stroke-width="1"/>
<rect width="13" height="0" x="244" y="97" style="fill:rgb(240,240,0);stroke:none"/>
<rect width="13" height="0" x="244" y="97" rx="0" ry="0" style="fill:none;stroke-width:1;stroke:rgb(0,0,0)"/>
<line x1="250" y1="97" x2="250" y2="97" stroke="rgb(0,0,0)" stroke-width="1"/>
<line x1="244" y1="97" x2="257" y2="97" stroke="rgb(0,0,0)" stroke-width="1"/>
<line x1="250" y1="181" x2="250" y2="97" stroke="rgb(0,0,0)" stroke-width="1"/>
<line x1="244" y1="181" x2="257" y2="181" stroke="rgb(0,0,0)" stroke-width="1"/>
<line x1="244" y1="97" x2="257" y2="97" stroke="rgb(200,0,0)" stroke-width="1"/>
<rect width="13" height="0" x="261" y="97" style="fill:rgb(240,240,0);stroke:none"/>
<rect width="13" height="0" x="261" y="97" rx="0" ry="0" style="fill:none;stroke-width:1;stroke:rgb(0,0,0)"/>
<line x1="267" y1="97" x2="267" y2="97" stroke="rgb(0,0,0)" stroke-width="1"/>
<line x1="261" y1="97" x2="274" y2="97" stroke="rgb(0,0,0)" stroke-width="1"/>
<line x1="267" y1="181" x2="267" y2="97" stroke="rgb(0,0,0)" stroke-width="1"/>
<line x1="261" y1="181" x2="274" y2="181" stroke="rgb(0,0,0)" stroke-width="1"/>
<line x1="261" y1="97" x2="274" y2="97" stroke="rgb(200,0,0)" stroke-width="1"/>
<rect width="13" height="0" x="278" y="97" style="fill:rgb(240,240,0);stroke:none"/>
<rect width="13" height="0" x="278" y="97" rx="0" ry="0" style="fill:none;stroke-width:1;stroke:rgb(0,0,0)"/>
<line x1="284" y1="97" x2="284" y2="97" stroke="rgb(0,0,0)" stroke-width="1"/>
<line x1="278" y1="97" x2="291" y2="97" stroke="rgb(0,0,0)" stroke-width="1"/>
<line x1="284" y1="216" x2="284" y2="97" stroke="rgb(0,0,0)" stroke-width="1"/>
<line x1="278" y1="216" x2="291" y2="216" stroke="rgb(0,0,0)" stroke-width="1"/>
<line x1="278" y1="97" x2="291" y2="97" stroke="rgb(200,0,0)" stroke-width="1"/>
<rect width="13" height="0" x="295" y="97" style="fill:rgb(240,240,0);stroke:none"/>
<rect width="13" height="0" x="295" y="97" rx="0" ry="0" style="fill:none;stroke-width:1;stroke:rgb(0,0,0)"/>
<line x1="301" y1="97" x2="301" y2="97" stroke="rgb(0,0,0)" stroke-width="1"/>
<line x1="295" y1="97" x2="308" y2="97" stroke="rgb(0,0,0)" stroke-width="1"/>
<line x1="301" y1="181" x2="301" y2="97" stroke="rgb(0,0,0)" stroke-width="1"/>
<line x1="295" y1="181" x2="308" y2="181" stroke="rgb(0,0,0)" stroke-width="1"/>
<line x1="295" y1="97" x2="308" y2="97" stroke="rgb(200,0,0)" stroke-width="1"/>
<rect width="13" height="0" x="312" y="97" style="fill:rgb(240,240,0);stroke:none"/>
<rect width="13" height="0" x="312" y="97" rx="0" ry="0" style="fill:none;stroke-width:1;stroke:rgb(0,0,0)"/>
<line x1="318" y1="97" x2="318" y2="97" stroke="rgb(0,0,0)" stroke-width="1"/>
<line x1="312" y1="97" x2="325" y2="97" stroke="rgb(0,0,0)" stroke-width="1"/>
<line x1="318" y1="216" x2="318" y2="97" stroke="rgb(0,0,0)" stroke-width="1"/>
<line x1="312" y1="216" x2="325" y2="216" stroke="rgb(0,0,0)" stroke-width="1"/>
<line x1="312" y1="97" x2="325" y2="97" stroke="rgb(200,0,0)" stroke-width="1"/>
<rect width="13" height="0" x="329" y="97" style="fill:rgb(240,240,0);stroke:none"/>
<rect width="13" height="0" x="329" y="97" rx="0" ry="0" style="fill:none;stroke-width:1;stroke:rgb(0,0,0)"/>
<line x1="335" y1="97" x2="335" y2="97" stroke="rgb(0,0,0)" stroke-width="1"/>
<line x1="329" y1="97" x2="342" y2="97" stroke="rgb(0,0,0)" stroke-width="1"/>
<line x1="335" y1="251" x2="335" y2="97" stroke="rgb(0,0,0)" stroke-width="1"/>
<line x1="329" y1="251" x2="342" y2="251" stroke="rgb(0,0,0)" stroke-width="1"/>
<line x1="329" y1="97" x2="342" y2="97" stroke="rgb(200,0,0)" stroke-width="1"/>
<rect width="13" height="0" x="346" y="97" style="fill:rgb(240,240,0);stroke:none"/>
<rect width="13" height="0" x="346" y="97" rx="0" ry="0" style="fill:none;stroke-width:1;stroke:rgb(0,0,0)"/>
<line x1="352" y1="97" x2="352" y2="97" stroke="rgb(0,0,0)" stroke-width="1"/>
<line x1="346" y1="97" x2="359" y2="97" stroke="rgb(0,0,0)" stroke-width="1"/>
<line x1="352" y1="251" x2="352" y2="97" stroke="rgb(0,0,0)" stroke-width="1"/>
<line x1="346" y1="251" x2="359" y2="251" stroke="rgb(0,0,0)" stroke-width="1"/>
<line x1="346" y1="97" x2="359" y2="97" stroke="rgb(200,0,0)" stroke-width="1"/>
<rect width="13" height="0" x="363" y="97" style="fill:rgb(240,240,0);stroke:none"/>
<rect width="13" height="0" x="363" y="97" rx="0" ry="0" style="fill:none;stroke-width:1;stroke:rgb(0,0,0)"/>
<line x1="369" y1="97" x2="369" y2="97" stroke="rgb(0,0,0)" stroke-width="1"/>
<line x1="363" y1="97" x2="376" y2="97" stroke="rgb(0,0,0)" stroke-width="1"/>
<line x1="369" y1="300" x2="369" y2="97" stroke="rgb(0,0,0)" stroke-width="1"/>
<line x1="363" y1="300" x2="376" y2="300" stroke="rgb(0,0,0)" stroke-width="1"/>
<line x1="363" y1="97" x2="376" y2="97" stroke="rgb(200,0,0)" stroke-width="1"/>
<rect width="13" height="0" x="380" y="97" style="fill:rgb(240,240,0);stroke:none"/>
<rect width="13" height="0" x="380" y="97" rx="0" ry="0" style="fill:none;stroke-width:1;stroke:rgb(0,0,0)"/>
<line x1="386" y1="97" x2="386" y2="97" stroke="rgb(0,0,0)" stroke-width="1"/>
<line x1="380" y1="97" x2="393" y2="97" stroke="rgb(0,0,0)" stroke-width="1"/>
<line x1="386" y1="300" x2="386" y2="97" stroke="rgb(0,0,0)" stroke-width="1"/>
<line x1="380" y1="300" x2="393" y2="300" stroke="rgb(0,0,0)" stroke-width="1"/>
<line x1="380" y1="97" x2="393" y2="97" stroke="rgb(200,0,0)" stroke-width="1"/>
<rect width="13" height="0" x="397" y="97" style="fill:rgb(240,240,0);stroke:none"/>
<rect width="13" height="0" x="397" y="97" rx="0" ry="0" style="fill:none;stroke-width:1;stroke:rgb(0,0,0)"/>
<line x1="403" y1="97" x2="403" y2="97" stroke="rgb(0,0,0)" stroke-width="1"/>
<line x1="397" y1="97" x2="410" y2="97" stroke="rgb(0,0,0)" stroke-width="1"/>
<line x1="403" y1="350" x2="403" y2="97" stroke="rgb(0,0,0)" stroke-width="1"/>
<line x1="397" y1="350" x2="410" y2="350" stroke="rgb(0,0,0)" stroke-width="1"/>
<line x1="397" y1="97" x2="410" y2="97" stroke="rgb(200,0,0)" stroke-width="1"/>
<rect width="13" height="0" x="414" y="97" style="fill:rgb(240,240,0);stroke:none"/>
<rect width="13" height="0" x="414" y="97" rx="0" ry="0" style="fill:none;stroke-width:1;stroke:rgb(0,0,0)"/>
<line x1="420" y1="97" x2="420" y2="97" stroke="rgb(0,0,0)" stroke-width="1"/>
<line x1="414" y1="97" x2="427" y2="97" stroke="rgb(0,0,0)" stroke-width="1"/>
<line x1="420" y1="350" x2="420" y2="97" stroke="rgb(0,0,0)" stroke-width="1"/>
<line x1="414" y1="350" x2="427" y2="350" stroke="rgb(0,0,0)" stroke-width="1"/>
<line x1="414" y1="97" x2="427" y2="97" stroke="rgb(200,0,0)" stroke-width="1"/>
<rect width="13" height="0" x="431" y="97" style="fill:rgb(240,240,0);stroke:none"/>
<rect width="13" height="0" x="431" y="97" rx="0" ry="0" style="fill:none;stroke-width:1;stroke:rgb(0,0,0)"/>
<line x1="437" y1="69" x2="437" y2="97" stroke="rgb(0,0,0)" stroke-width="1"/>
<line x1="431" y1="69" x2="444" y2="69" stroke="rgb(0,0,0)" stroke-width="1"/>
<line x1="437" y1="476" x2="437" y2="97" stroke="rgb(0,0,0)" stroke-width="1"/>
<line x1="431" y1="476" x2="444" y2="476" stroke="rgb(0,0,0)" stroke-width="1"/>
<line x1="431" y1="97" x2="444" y2="97" stroke="rgb(200,0,0)" stroke-width="1"/>
<rect width="13" height="0" x="448" y="97" style="fill:rgb(240,240,0);stroke:none"/>
<rect width="13" height="0" x="448" y="97" rx="0" ry="0" style="fill:none;stroke-width:1;stroke:rgb(0,0,0)"/>
<line x1="454" y1="69" x2="454" y2="97" stroke="rgb(0,0,0)" stroke-width="1"/>
<line x1="448" y1="69" x2="461" y2="69" stroke="rgb(0,0,0)" stroke-width="1"/>
<line x1="454" y1="476" x2="454" y2="97" stroke="rgb(0,0,0)" stroke-width="1"/>
<line x1="448" y1="476" x2="461" y2="476" stroke="rgb(0,0,0)" stroke-width="1"/>
<line x1="448" y1="97" x2="461" y2="97" stroke="rgb(200,0,0)" stroke-width="1"/>
<rect width="13" height="42" x="465" y="97" style="fill:rgb(240,240,0);stroke:none"/>
<rect width="13" height="42" x="465" y="97" rx="0" ry="0" style="fill:none;stroke-width:1;stroke:rgb(0,0,0)"/>
<line x1="471" y1="69" x2="471" y2="97" stroke="rgb(0,0,0)" stroke-width="1"/>
<line x1="465" y1="69" x2="478" y2="69" stroke="rgb(0,0,0)" stroke-width="1"/>
<line x1="471" y1="476" x2="471" y2="139" stroke="rgb(0,0,0)" stroke-width="1"/>
<line x1="465" y1="476" x2="478" y2="476" stroke="rgb(0,0,0)" stroke-width="1"/>
<line x1="465" y1="97" x2="478" y2="97" stroke="rgb(200,0,0)" stroke-width="1"/>
<rect width="13" height="84" x="482" y="97" style="fill:rgb(240,240,0);stroke:none"/>
<rect width="13" height="84" x="482" y="97" rx="0" ry="0" style="fill:none;stroke-width:1;stroke:rgb(0,0,0)"/>
<line x1="488" y1="97" x2="488" y2="97" stroke="rgb(0,0,0)" stroke-width="1"/>
<line x1="482" y1="97" x2="495" y2="97" stroke="rgb(0,0,0)" stroke-width="1"/>
<line x1="488" y1="476" x2="488" y2="181" stroke="rgb(0,0,0)" stroke-width="1"/>
<line x1="482" y1="476" x2="495" y2="476" stroke="rgb(0,0,0)" stroke-width="1"/>
<line x1="482" y1="97" x2="495" y2="97" stroke="rgb(200,0,0)" stroke-width="1"/>
<rect width="13" height="379" x="499" y="97" style="fill:rgb(240,240,0);stroke:none"/>
<rect width="13" height="379" x="499" y="97" rx="0" ry="0" style="fill:none;stroke-width:1;stroke:rgb(0,0,0)"/>
<line x1="505" y1="97" x2="505" y2="97" stroke="rgb(0,0,0)" stroke-width="1"/>
<line x1="499" y1="97" x2="512" y2="97" stroke="rgb(0,0,0)" stroke-width="1"/>
<line x1="505" y1="476" x2="505" y2="476" stroke="rgb(0,0,0)" stroke-width="1"/>
<line x1="499" y1="476" x2="512" y2="476" stroke="rgb(0,0,0)" stroke-width="1"/>
<line x1="499" y1="97" x2="512" y2="97" stroke="rgb(200,0,0)" stroke-width="1"/>
<rect width="13" height="379" x="516" y="97" style="fill:rgb(240,240,0);stroke:none"/>
<rect width="13" height="379" x="516" y="97" rx="0" ry="0" style="fill:none;stroke-width:1;stroke:rgb(0,0,0)"/>
<line x1="522" y1="97" x2="522" y2="97" stroke="rgb(0,0,0)" stroke-width="1"/>
<line x1="516" y1="97" x2="529" y2="97" stroke="rgb(0,0,0)" stroke-width="1"/>
<line x1="522" y1="476" x2="522" y2="476" stroke="rgb(0,0,0)" stroke-width="1"/>
<line x1="516" y1="476" x2="529" y2="476" stroke="rgb(0,0,0)" stroke-width="1"/>
<line x1="516" y1="97" x2="529" y2="97" stroke="rgb(200,0,0)" stroke-width="1"/>
<rect width="13" height="379" x="533" y="97" style="fill:rgb(240,240,0);stroke:none"/>
<rect width="13" height="379" x="533" y="97" rx="0" ry="0" style="fill:none;stroke-width:1;stroke:rgb(0,0,0)"/>
<line x1="539" y1="97" x2="539" y2="97" stroke="rgb(0,0,0)" stroke-width="1"/>
<line x1="533" y1="97" x2="546" y2="97" stroke="rgb(0,0,0)" stroke-width="1"/>
<line x1="539" y1="476" x2="539" y2="476" stroke="rgb(0,0,0)" stroke-width="1"/>
<line x1="533" y1="476" x2="546" y2="476" stroke="rgb(0,0,0)" stroke-width="1"/>
<line x1="533" y1="97" x2="546" y2="97" stroke="rgb(200,0,0)" stroke-width="1"/>
<rect width="13" height="379" x="550" y="97" style="fill:rgb(240,240,0);stroke:none"/>
<rect width="13" height="379" x="550" y="97" rx="0" ry="0" style="fill:none;stroke-width:1;stroke:rgb(0,0,0)"/>
<line x1="556" y1="97" x2="556" y2="97" stroke="rgb(0,0,0)" stroke-width="1"/>
<line x1="550" y1="97" x2="563" y2="97" stroke="rgb(0,0,0)" stroke-width="1"/>
<line x1="556" y1="476" x2="556" y2="476" stroke="rgb(0,0,0)" stroke-width="1"/>
<line x1="550" y1="476" x2="563" y2="476" stroke="rgb(0,0,0)" stroke-width="1"/>
<line x1="550" y1="97" x2="563" y2="97" stroke="rgb(200,0,0)" stroke-width="1"/>
<rect width="13" height="379" x="567" y="97" style="fill:rgb(240,240,0);stroke:none"/>
<rect width="13" height="379" x="567" y="97" rx="0" ry="0" style="fill:none;stroke-width:1;stroke:rgb(0,0,0)"/>
<line x1="573" y1="97" x2="573" y2="97" stroke="rgb(0,0,0)" stroke-width="1"/>
<line x1="567" y1="97" x2="580" y2="97" stroke="rgb(0,0,0)" stroke-width="1"/>
<line x1="573" y1="476" x2="573" y2="476" stroke="rgb(0,0,0)" stroke-width="1"/>
<line x1="567" y1="476" x2="580" y2="476" stroke="rgb(0,0,0)" stroke-width="1"/>
<line x1="567" y1="97" x2="580" y2="97" stroke="rgb(200,0,0)" stroke-width="1"/>
<rect width="13" height="379" x="584" y="97" style="fill:rgb(240,240,0);stroke:none"/>
<rect width="13" height="379" x="584" y="97" rx="0" ry="0" style="fill:none;stroke-width:1;stroke:rgb(0,0,0)"/>
<line x1="590" y1="97" x2="590" y2="97" stroke="rgb(0,0,0)" stroke-width="1"/>
<line x1="584" y1="97" x2="597" y2="97" stroke="rgb(0,0,0)" stroke-width="1"/>
<line x1="590" y1="476" x2="590" y2="476" stroke="rgb(0,0,0)" stroke-width="1"/>
<line x1="584" y1="476" x2="597" y2="476" stroke="rgb(0,0,0)" stroke-width="1"/>
<line x1="584" y1="139" x2="597" y2="139" stroke="rgb(200,0,0)" stroke-width="1"/>
<rect width="13" height="379" x="601" y="97" style="fill:rgb(240,240,0);stroke:none"/>
<rect width="13" height="379" x="601" y="97" rx="0" ry="0" style="fill:none;stroke-width:1;stroke:rgb(0,0,0)"/>
<line x1="607" y1="97" x2="607" y2="97" stroke="rgb(0,0,0)" stroke-width="1"/>
<line x1="601" y1="97" x2="614" y2="97" stroke="rgb(0,0,0)" stroke-width="1"/>
<line x1="607" y1="476" x2="607" y2="476" stroke="rgb(0,0,0)" stroke-width="1"/>
<line x1="601" y1="476" x2="614" y2="476" stroke="rgb(0,0,0)" stroke-width="1"/>
<line x1="601" y1="97" x2="614" y2="97" stroke="rgb(200,0,0)" stroke-width="1"/>
<rect width="13" height="379" x="618" y="97" style="fill:rgb(240,240,0);stroke:none"/>
<rect width="13" height="379" x="618" y="97" rx="0" ry="0" style="fill:none;stroke-width:1;stroke:rgb(0,0,0)"/>
<line x1="624" y1="97" x2="624" y2="97" stroke="rgb(0,0,0)" stroke-width="1"/>
<line x1="618" y1="97" x2="631" y2="97" stroke="rgb(0,0,0)" stroke-width="1"/>
<line x1="624" y1="476" x2="624" y2="476" stroke="rgb(0,0,0)" stroke-width="1"/>
<line x1="618" y1="476" x2="631" y2="476" stroke="rgb(0,0,0)" stroke-width="1"/>
<line x1="618" y1="97" x2="631" y2="97" stroke="rgb(200,0,0)" stroke-width="1"/>
<rect width="13" height="379" x="635" y="97" style="fill:rgb(240,240,0);stroke:none"/>
<rect width="13" height="379" x="635" y="97" rx="0" ry="0" style="fill:none;stroke-width:1;stroke:rgb(0,0,0)"/>
<line x1="641" y1="97" x2="641" y2="97" stroke="rgb(0,0,0)" stroke-width="1"/>
<line x1="635" y1="97" x2="648" y2="97" stroke="rgb(0,0,0)" stroke-width="1"/>
<line x1="641" y1="476" x2="641" y2="476" stroke="rgb(0,0,0)" stroke-width="1"/>
<line x1="635" y1="476" x2="648" y2="476" stroke="rgb(0,0,0)" stroke-width="1"/>
<line x1="635" y1="97" x2="648" y2="97" stroke="rgb(200,0,0)" stroke-width="1"/>
<rect width="13" height="379" x="652" y="97" style="fill:rgb(240,240,0);stroke:none"/>
<rect width="13" height="379" x="652" y="97" rx="0" ry="0" style="fill:none;stroke-width:1;stroke:rgb(0,0,0)"/>
<line x1="658" y1="97" x2="658" y2="97" stroke="rgb(0,0,0)" stroke-width="1"/>
<line x1="652" y1="97" x2="665" y2="97" stroke="rgb(0,0,0)" stroke-width="1"/>
<line x1="658" y1="476" x2="658" y2="476" stroke="rgb(0,0,0)" stroke-width="1"/>
<line x1="652" y1="476" x2="665" y2="476" stroke="rgb(0,0,0)" stroke-width="1"/>
<line x1="652" y1="139" x2="665" y2="139" stroke="rgb(200,0,0)" stroke-width="1"/>
<rect width="13" height="379" x="669" y="97" style="fill:rgb(240,240,0);stroke:none"/>
<rect width="13" height="379" x="669" y="97" rx="0" ry="0" style="fill:none;stroke-width:1;stroke:rgb(0,0,0)"/>
<line x1="675" y1="97" x2="675" y2="97" stroke="rgb(0,0,0)" stroke-width="1"/>
<line x1="669" y1="97" x2="682" y2="97" stroke="rgb(0,0,0)" stroke-width="1"/>
<line x1="675" y1="476" x2="675" y2="476" stroke="rgb(0,0,0)" stroke-width="1"/>
<line x1="669" y1="476" x2="682" y2="476" stroke="rgb(0,0,0)" stroke-width="1"/>
<line x1="669" y1="181" x2="682" y2="181" stroke="rgb(200,0,0)" stroke-width="1"/>
<rect width="13" height="379" x="686" y="97" style="fill:rgb(240,240,0);stroke:none"/>
<rect width="13" height="379" x="686" y="97" rx="0" ry="0" style="fill:none;stroke-width:1;stroke:rgb(0,0,0)"/>
<line x1="692" y1="97" x2="692" y2="97" stroke="rgb(0,0,0)" stroke-width="1"/>
<line x1="686" y1="97" x2="699" y2="97" stroke="rgb(0,0,0)" stroke-width="1"/>
<line x1="692" y1="476" x2="692" y2="476" stroke="rgb(0,0,0)" stroke-width="1"/>
<line x1="686" y1="476" x2="699" y2="476" stroke="rgb(0,0,0)" stroke-width="1"/>
<line x1="686" y1="181" x2="699" y2="181" stroke="rgb(200,0,0)" stroke-width="1"/>
<rect width="13" height="337" x="703" y="139" style="fill:rgb(240,240,0);stroke:none"/>
<rect width="13" height="337" x="703" y="139" rx="0" ry="0" style="fill:none;stroke-width:1;stroke:rgb(0,0,0)"/>
<line x1="709" y1="97" x2="709" y2="139" stroke="rgb(0,0,0)" stroke-width="1"/>
<line x1="703" y1="97" x2="716" y2="97" stroke="rgb(0,0,0)" stroke-width="1"/>
<line x1="709" y1="476" x2="709" y2="476" stroke="rgb(0,0,0)" stroke-width="1"/>
<line x1="703" y1="476" x2="716" y2="476" stroke="rgb(0,0,0)" stroke-width="1"/>
<line x1="703" y1="216" x2="716" y2="216" stroke="rgb(200,0,0)" stroke-width="1"/>
<rect width="13" height="295" x="720" y="181" style="fill:rgb(240,240,0);stroke:none"/>
<rect width="13" height="295" x="720" y="181" rx="0" ry="0" style="fill:none;stroke-width:1;stroke:rgb(0,0,0)"/>
<line x1="726" y1="97" x2="726" y2="181" stroke="rgb(0,0,0)" stroke-width="1"/>
<line x1="720" y1="97" x2="733" y2="97" stroke="rgb(0,0,0)" stroke-width="1"/>
<line x1="726" y1="476" x2="726" y2="476" stroke="rgb(0,0,0)" stroke-width="1"/>
<line x1="720" y1="476" x2="733" y2="476" stroke="rgb(0,0,0)" stroke-width="1"/>
<line x1="720" y1="251" x2="733" y2="251" stroke="rgb(200,0,0)" stroke-width="1"/>
<rect width="13" height="379" x="737" y="97" style="fill:rgb(240,240,0);stroke:none"/>
<rect width="13" height="379" x="737" y="97" rx="0" ry="0" style="fill:none;stroke-width:1;stroke:rgb(0,0,0)"/>
<line x1="743" y1="97" x2="743" y2="97" stroke="rgb(0,0,0)" stroke-width="1"/>
<line x1="737" y1="97" x2="750" y2="97" stroke="rgb(0,0,0)" stroke-width="1"/>
<line x1="743" y1="476" x2="743" y2="476" stroke="rgb(0,0,0)" stroke-width="1"/>
<line x1="737" y1="476" x2="750" y2="476" stroke="rgb(0,0,0)" stroke-width="1"/>
<line x1="737" y1="476" x2="750" y2="476" stroke="rgb(200,0,0)" stroke-width="1"/>
<line x1="29" y1="167" x2="46" y2="156" stroke="rgb(0,0,200)" stroke-width="1"/>
<line x1="46" y1="156" x2="63" y2="160" stroke="rgb(0,0,200)" stroke-width="1"/>
<line x1="63" y1="160" x2="80" y2="176" stroke="rgb(0,0,200)" stroke-width="1"/>
<line x1="80" y1="176" x2="97" y2="130" stroke="rgb(0,0,200)" stroke-width="1"/>
<line x1="97" y1="130" x2="114" y2="122" stroke="rgb(0,0,200)" stroke-width="1"/>
<line x1="114" y1="122" x2="131" y2="120" stroke="rgb(0,0,200)" stroke-width="1"/>
<line x1="131" y1="120" x2="148" y2="121" stroke="rgb(0,0,200)" stroke-width="1"/>
<line x1="148" y1="121" x2="165" y2="122" stroke="rgb(0,0,200)" stroke-width="1"/>
<line x1="165" y1="122" x2="182" y2="123" stroke="rgb(0,0,200)" stroke-width="1"/>
<line x1="182" y1="123" x2="199" y2="125" stroke="rgb(0,0,200)" stroke-width="1"/>
<line x1="199" y1="125" x2="216" y2="126" stroke="rgb(0,0,200)" stroke-width="1"/>
<line x1="216" y1="126" x2="233" y2="126" stroke="rgb(0,0,200)" stroke-width="1"/>
<line x1="233" y1="126" x2="250" y2="125" stroke="rgb(0,0,200)" stroke-width="1"/>
<line x1="250" y1="125" x2="267" y2="126" stroke="rgb(0,0,200)" stroke-width="1"/>
<line x1="267" y1="126" x2="284" y2="131" stroke="rgb(0,0,200)" stroke-width="1"/>
<line x1="284" y1="131" x2="301" y2="129" stroke="rgb(0,0,200)" stroke-width="1"/>
<line x1="301" y1="129" x2="318" y2="132" stroke="rgb(0,0,200)" stroke-width="1"/>
<line x1="318" y1="132" x2="335" y2="133" stroke="rgb(0,0,200)" stroke-width="1"/>
<line x1="335" y1="133" x2="352" y2="134" stroke="rgb(0,0,200)" stroke-width="1"/>
<line x1="352" y1="134" x2="369" y2="139" stroke="rgb(0,0,200)" stroke-width="1"/>
<line x1="369" y1="139" x2="386" y2="138" stroke="rgb(0,0,200)" stroke-width="1"/>
<line x1="386" y1="138" x2="403" y2="141" stroke="rgb(0,0,200)" stroke-width="1"/>
<line x1="403" y1="141" x2="420" y2="143" stroke="rgb(0,0,200)" stroke-width="1"/>
<line x1="420" y1="143" x2="437" y2="144" stroke="rgb(0,0,200)" stroke-width="1"/>
<line x1="437" y1="144" x2="454" y2="147" stroke="rgb(0,0,200)" stroke-width="1"/>
<line x1="454" y1="147" x2="471" y2="156" stroke="rgb(0,0,200)" stroke-width="1"/>
<line x1="471" y1="156" x2="488" y2="172" stroke="rgb(0,0,200)" stroke-width="1"/>
<line x1="488" y1="172" x2="505" y2="229" stroke="rgb(0,0,200)" stroke-width="1"/>
<line x1="505" y1="229" x2="522" y2="225" stroke="rgb(0,0,200)" stroke-width="1"/>
<line x1="522" y1="225" x2="539" y2="227" stroke="rgb(0,0,200)" stroke-width="1"/>
<line x1="539" y1="227" x2="556" y2="228" stroke="rgb(0,0,200)" stroke-width="1"/>
<line x1="556" y1="228" x2="573" y2="232" stroke="rgb(0,0,200)" stroke-width="1"/>
<line x1="573" y1="232" x2="590" y2="240" stroke="rgb(0,0,200)" stroke-width="1"/>
<line x1="590" y1="240" x2="607" y2="239" stroke="rgb(0,0,200)" stroke-width="1"/>
<line x1="607" y1="239" x2="624" y2="244" stroke="rgb(0,0,200)" stroke-width="1"/>
<line x1="624" y1="244" x2="641" y2="249" stroke="rgb(0,0,200)" stroke-width="1"/>
<line x1="641" y1="249" x2="658" y2="255" stroke="rgb(0,0,200)" stroke-width="1"/>
<line x1="658" y1="255" x2="675" y2="261" stroke="rgb(0,0,200)" stroke-width="1"/>
<line x1="675" y1="261" x2="692" y2="269" stroke="rgb(0,0,200)" stroke-width="1"/>
<line x1="692" y1="269" x2="709" y2="290" stroke="rgb(0,0,200)" stroke-width="1"/>
<line x1="709" y1="290" x2="726" y2="317" stroke="rgb(0,0,200)" stroke-width="1"/>
<line x1="726" y1="317" x2="743" y2="313" stroke="rgb(0,0,200)" stroke-width="1"/>
</svg>
